<?xml version="1.0" standalone="no"?>
<!DOCTYPE svg PUBLIC "-//W3C//DTD SVG 20010904//EN"
 "http://www.w3.org/TR/2001/REC-SVG-20010904/DTD/svg10.dtd">
<svg version="1.0" xmlns="http://www.w3.org/2000/svg"
 width="300.000000pt" height="300.000000pt" viewBox="0 0 300.000000 300.000000"
 preserveAspectRatio="xMidYMid meet">
<metadata>
Created by potrace 1.11, written by Peter Selinger 2001-2013
</metadata>
<g transform="translate(0.000000,300.000000) scale(0.100000,-0.100000)"
fill="#000000" stroke="none">
<path d="M1260 2921 c-133 -36 -259 -117 -400 -260 -133 -134 -173 -217 -254
-516 -43 -161 -46 -179 -48 -238 -1 -67 14 -80 80 -73 29 3 57 8 62 11 17 10
114 25 131 20 11 -4 16 -16 16 -38 0 -39 10 -116 25 -177 19 -81 12 -226 -15
-315 -19 -63 -22 -81 -11 -83 7 -2 47 7 88 19 65 19 78 27 90 54 40 83 40 176
2 320 -41 153 -40 144 -9 141 16 -2 41 1 57 5 34 10 35 9 41 -19 25 -129 23
-179 -9 -263 -13 -36 -26 -89 -28 -119 -3 -63 -8 -61 99 -39 l61 13 28 58 c40
84 32 170 -34 371 -18 54 -18 57 -2 57 16 0 28 -29 45 -110 1 -3 7 -32 15 -65
14 -63 18 -232 6 -278 l-6 -27 113 2 c62 1 118 -2 125 -6 16 -10 15 0 -8 67
-11 31 -20 76 -20 100 0 40 35 255 42 262 7 8 132 64 135 61 2 -1 -12 -34 -31
-72 -37 -76 -62 -156 -69 -221 -4 -39 14 -188 24 -197 2 -2 54 -6 114 -10 61
-3 134 -12 163 -20 28 -8 52 -11 53 -8 5 32 -8 89 -33 152 -33 82 -38 155 -18
259 5 29 10 55 10 57 0 1 14 -1 31 -6 18 -5 35 -7 40 -5 23 15 33 -79 31 -296
l-3 -187 61 -30 60 -29 1 46 c0 25 2 60 4 76 2 17 6 91 10 166 6 114 5 149
-10 210 -10 41 -21 80 -25 88 -10 19 27 49 69 57 23 5 43 -1 84 -24 70 -39 89
-42 126 -15 34 26 51 74 44 130 -11 92 -128 360 -215 493 -209 317 -647 528
-938 451z m168 -1126 c1 -1 -4 -19 -12 -41 -12 -34 -15 -36 -21 -19 -5 11 -14
34 -21 52 l-12 31 31 -10 c18 -6 33 -12 35 -13z"/>
<path d="M332 1155 c-66 -9 -71 -11 -51 -23 20 -13 21 -19 14 -105 -9 -127
-13 -149 -32 -162 -15 -11 -15 -13 3 -18 10 -3 46 -8 79 -12 33 -3 74 -8 90
-11 29 -6 30 -6 12 14 -10 11 -20 32 -23 48 -3 16 -9 44 -14 62 -4 17 -6 32
-2 32 4 0 30 -23 59 -52 47 -47 51 -53 35 -64 -15 -12 -15 -13 8 -15 27 -1 43
-3 108 -13 51 -8 55 -19 -41 118 l-69 99 24 21 c13 12 38 33 56 49 l34 27 -29
1 c-15 0 -49 2 -76 3 -39 2 -46 -1 -42 -13 2 -9 -13 -36 -34 -60 l-38 -45 -7
48 c-6 41 -5 49 15 65 26 20 22 21 -79 6z"/>
<path d="M1180 1159 c0 -5 5 -9 11 -9 12 0 9 -23 -26 -160 -20 -80 -32 -111
-52 -128 l-26 -24 69 5 c38 3 84 6 102 6 29 1 31 3 20 20 -20 32 2 66 45 69
45 3 55 -27 25 -76 -20 -33 -20 -34 -2 -29 166 49 166 49 144 61 -14 7 -40 50
-71 121 -27 60 -49 113 -49 116 0 3 10 11 23 17 19 9 16 11 -28 12 -27 1 -80
3 -117 4 -38 2 -68 0 -68 -5z m150 -136 c0 -12 -38 -29 -46 -20 -3 3 0 25 7
48 l12 44 13 -30 c7 -16 13 -35 14 -42z"/>
<path d="M2184 1137 l38 -34 -6 -84 c-12 -142 -16 -163 -39 -181 -20 -15 -19
-16 29 -10 27 4 158 6 291 5 l242 -2 6 47 c4 26 8 58 10 72 4 24 4 24 -11 5
-47 -63 -47 -63 -110 -53 -32 5 -59 10 -60 11 -1 1 4 17 11 35 17 39 54 43 86
11 l21 -21 -5 68 c-3 38 -6 71 -6 73 -1 3 -7 -3 -13 -11 -7 -9 -30 -20 -50
-23 -35 -7 -36 -6 -31 17 9 37 19 43 62 42 57 -2 58 -2 77 -21 15 -16 16 -15
9 18 -14 70 -12 68 -63 64 -65 -6 -273 -18 -297 -18 -43 0 -211 15 -220 20 -5
2 7 -11 29 -30z m244 -19 c6 -7 13 -38 16 -68 4 -30 10 -80 15 -110 8 -46 7
-57 -7 -67 -22 -18 -46 -16 -71 5 -27 21 -77 231 -57 237 6 2 18 6 26 8 29 10
68 7 78 -5z"/>
<path d="M740 1152 c-98 -10 -115 -14 -92 -23 15 -6 22 -17 23 -36 0 -15 2
-37 4 -48 2 -11 7 -40 10 -65 3 -25 8 -60 12 -79 4 -26 2 -37 -12 -48 -17 -12
-16 -13 16 -14 19 0 46 -2 61 -4 23 -3 29 2 50 51 12 29 26 54 29 54 4 0 16
-27 28 -61 21 -56 24 -60 49 -55 15 3 45 9 67 12 48 7 82 23 49 24 -11 0 -23
2 -26 5 -2 3 14 60 37 128 29 83 47 123 58 125 37 7 13 17 -45 20 -35 1 -81 5
-103 8 -34 5 -38 4 -23 -8 19 -15 21 -26 19 -128 l-2 -75 -35 73 c-19 40 -38
71 -42 68 -4 -2 -28 -34 -52 -70 -24 -36 -45 -64 -47 -62 -1 1 6 44 15 95 15
79 22 95 43 107 23 12 22 13 -21 11 -25 -1 -56 -3 -70 -5z"/>
<path d="M1570 1145 c-69 -9 -80 -13 -57 -19 l27 -8 -6 -127 c-4 -92 -9 -129
-20 -137 -20 -16 -17 -23 9 -19 12 2 75 6 141 10 99 5 122 3 136 -10 16 -14
16 -10 1 75 -15 91 -24 108 -35 67 -6 -25 -74 -64 -87 -50 -4 4 -10 26 -13 48
-4 22 -8 47 -11 55 -2 8 -6 32 -9 52 -5 30 -2 39 14 48 22 12 27 27 8 26 -7 0
-51 -5 -98 -11z"/>
<path d="M1989 1156 c-2 -2 -40 -7 -84 -11 -88 -7 -100 -11 -62 -20 l26 -7 -5
-126 c-4 -94 -10 -129 -20 -135 -21 -12 -17 -26 6 -22 12 2 75 7 142 10 105 5
123 3 140 -12 14 -12 18 -13 14 -2 -3 8 -7 28 -10 44 -19 121 -28 147 -39 103
-7 -26 -74 -65 -88 -51 -4 4 -15 49 -23 98 -16 88 -16 90 4 107 11 9 20 19 20
22 0 7 -15 8 -21 2z"/>
</g>
</svg>
