<svg id="svg" version="1.1" xmlns="http://www.w3.org/2000/svg" xmlns:xlink="http://www.w3.org/1999/xlink" width="400" height="476.1904761904762" viewBox="0, 0, 400,476.1904761904762"><g id="svgg"><path id="path0" d="M157.400 64.684 C 145.342 66.335,142.235 86.792,153.492 90.419 C 154.321 90.686,155.218 91.077,155.485 91.289 C 156.653 92.215,160.528 92.110,163.485 91.072 C 169.904 88.819,172.818 85.413,173.874 78.928 C 174.544 74.813,171.332 68.526,167.376 66.207 C 166.006 65.404,159.881 64.155,158.810 64.460 C 158.695 64.493,158.060 64.594,157.400 64.684 M210.479 64.832 C 200.356 66.586,196.883 83.398,205.447 89.188 C 215.067 95.692,228.983 88.347,227.890 77.342 C 226.972 68.099,220.103 63.164,210.479 64.832 M167.590 74.301 C 172.525 76.784,172.377 83.867,167.344 86.024 C 162.247 88.209,159.021 86.551,157.411 80.921 C 156.148 76.506,163.051 72.016,167.590 74.301 M221.559 74.230 C 225.128 75.658,226.511 80.734,224.169 83.805 C 220.907 88.082,214.388 87.901,212.380 83.478 C 209.630 77.423,215.289 71.722,221.559 74.230 M214.514 117.805 C 213.704 118.372,211.200 121.753,211.200 122.279 C 211.200 122.410,210.604 123.436,209.874 124.559 C 209.145 125.681,207.974 127.500,207.272 128.600 C 205.324 131.650,205.075 132.015,204.030 133.356 C 198.965 139.854,194.713 141.922,186.297 141.979 C 182.455 142.005,175.722 141.024,174.163 140.212 C 173.523 139.878,172.718 139.604,172.374 139.602 C 171.744 139.600,167.221 136.723,165.000 134.911 C 164.340 134.372,161.010 131.181,157.600 127.819 C 154.190 124.457,150.986 121.578,150.480 121.420 C 148.676 120.858,147.288 122.477,147.581 124.800 C 147.693 125.692,158.484 136.442,162.400 139.563 C 168.297 144.263,171.801 145.704,181.000 147.213 C 194.304 149.396,205.180 143.612,212.411 130.508 C 212.947 129.538,214.795 126.526,216.296 124.177 C 218.066 121.408,218.713 119.744,218.314 118.985 C 217.373 117.198,215.992 116.770,214.514 117.805 M20.000 290.400 C 20.000 291.167,19.733 291.200,13.600 291.200 C 7.467 291.200,7.200 291.233,7.200 292.000 C 7.200 292.711,6.933 292.800,4.800 292.800 L 2.400 292.800 2.400 294.400 C 2.400 295.733,2.533 296.000,3.200 296.000 C 3.733 296.000,4.000 296.267,4.000 296.800 C 4.000 297.333,4.267 297.600,4.800 297.600 C 5.240 297.600,5.600 297.851,5.600 298.157 C 5.600 298.802,6.452 299.200,7.833 299.200 C 9.138 299.200,9.268 301.915,8.000 302.707 C 7.239 303.183,7.200 303.640,7.200 312.176 C 7.200 320.795,7.169 321.156,6.400 321.400 C 5.640 321.641,5.600 322.005,5.600 328.627 C 5.600 335.333,5.569 335.600,4.800 335.600 C 4.267 335.600,4.000 335.867,4.000 336.400 C 4.000 336.933,3.733 337.200,3.200 337.200 C 2.667 337.200,2.400 337.467,2.400 338.000 C 2.400 338.622,2.133 338.800,1.200 338.800 L 0.000 338.800 0.000 341.200 L 0.000 343.600 4.400 343.600 C 8.267 343.600,8.897 343.697,9.600 344.400 C 10.333 345.133,10.933 345.200,16.800 345.200 C 22.101 345.200,23.200 345.299,23.200 345.775 C 23.200 346.594,25.664 346.865,31.800 346.721 L 37.000 346.600 37.124 345.100 C 37.231 343.812,37.132 343.600,36.424 343.600 C 35.867 343.600,35.600 343.341,35.600 342.800 C 35.600 342.267,35.333 342.000,34.800 342.000 C 34.267 342.000,34.000 341.733,34.000 341.200 C 34.000 340.667,33.733 340.400,33.200 340.400 C 32.667 340.400,32.400 340.133,32.400 339.600 C 32.400 339.067,32.133 338.800,31.600 338.800 C 30.867 338.800,30.800 338.533,30.800 335.600 C 30.800 332.703,30.727 332.400,30.027 332.400 C 29.322 332.400,29.242 332.044,29.127 328.399 C 29.008 324.638,29.240 323.379,29.716 325.200 C 29.831 325.640,30.212 326.000,30.563 326.000 C 30.913 326.000,31.200 326.287,31.200 326.637 C 31.200 326.988,31.560 327.369,32.000 327.484 C 32.440 327.599,32.800 327.948,32.800 328.259 C 32.800 328.570,33.063 328.926,33.385 329.050 C 33.706 329.173,34.079 329.617,34.212 330.037 C 34.345 330.457,34.700 330.800,35.000 330.800 C 35.300 330.800,35.660 331.160,35.800 331.600 C 35.940 332.040,36.300 332.400,36.600 332.400 C 36.900 332.400,37.260 332.760,37.400 333.200 C 37.540 333.640,37.912 334.000,38.227 334.000 C 38.542 334.000,38.800 334.287,38.800 334.637 C 38.800 334.988,39.143 335.365,39.563 335.474 C 40.662 335.762,40.964 337.200,39.925 337.200 C 39.474 337.200,39.038 337.533,38.926 337.963 C 38.816 338.383,38.370 338.819,37.935 338.933 C 35.823 339.485,37.184 341.789,39.700 341.920 C 41.299 342.003,42.000 342.204,42.000 342.577 C 42.000 343.457,42.982 343.600,49.033 343.600 C 53.696 343.600,54.800 343.707,54.800 344.157 C 54.800 345.119,55.607 345.167,71.834 345.181 C 90.152 345.196,89.600 345.257,89.600 343.219 C 89.600 342.232,89.872 341.478,90.400 341.000 C 90.936 340.515,91.200 339.768,91.200 338.738 C 91.200 337.467,91.339 337.200,92.000 337.200 C 92.663 337.200,92.800 336.933,92.800 335.647 C 92.800 334.430,92.973 334.048,93.600 333.884 C 94.206 333.725,94.400 333.338,94.400 332.284 C 94.400 331.230,94.594 330.843,95.200 330.684 C 95.902 330.501,96.000 330.672,96.000 332.075 C 96.000 333.338,96.168 333.719,96.800 333.884 C 97.427 334.048,97.600 334.430,97.600 335.647 C 97.600 336.667,97.875 337.475,98.400 338.000 C 98.903 338.503,99.200 339.333,99.200 340.237 C 99.200 341.338,99.387 341.724,100.000 341.884 C 100.636 342.050,100.801 342.433,100.806 343.747 C 100.816 346.534,100.921 346.584,106.962 346.731 C 112.013 346.853,112.401 346.808,113.067 346.031 C 113.687 345.306,114.229 345.200,117.326 345.200 C 120.485 345.200,120.897 345.116,121.075 344.434 C 121.254 343.749,121.740 343.655,125.690 343.534 C 129.747 343.411,130.152 343.327,130.701 342.500 C 131.029 342.005,131.557 341.600,131.874 341.600 C 132.284 341.600,132.414 341.223,132.325 340.300 L 132.200 339.000 129.100 338.883 C 126.329 338.779,126.000 338.683,126.000 337.983 C 126.000 337.355,125.723 337.200,124.600 337.200 C 123.467 337.200,123.200 337.048,123.200 336.400 C 123.200 335.956,123.467 335.600,123.800 335.600 C 124.243 335.600,124.400 335.137,124.400 333.833 C 124.400 331.686,124.704 330.800,125.443 330.800 C 125.857 330.800,126.000 330.185,126.000 328.400 C 126.000 326.267,126.089 326.000,126.800 326.000 C 127.511 326.000,127.600 325.733,127.600 323.600 C 127.600 321.467,127.689 321.200,128.400 321.200 C 129.067 321.200,129.200 320.933,129.200 319.600 C 129.200 318.533,129.467 317.733,130.000 317.200 C 130.533 316.667,130.800 315.867,130.800 314.800 C 130.800 313.733,131.067 312.933,131.600 312.400 C 132.116 311.884,132.400 311.067,132.400 310.096 C 132.400 309.026,132.630 308.449,133.200 308.093 C 133.818 307.707,134.000 307.160,134.000 305.693 C 134.000 304.226,134.182 303.679,134.800 303.293 C 135.252 303.010,135.600 302.360,135.600 301.797 C 135.600 301.181,135.828 300.800,136.195 300.800 C 136.523 300.800,137.154 300.489,137.597 300.110 C 138.040 299.730,139.167 299.235,140.102 299.010 L 141.800 298.600 141.921 296.500 L 142.042 294.400 134.221 294.400 C 126.933 294.400,126.345 294.345,125.600 293.600 C 124.844 292.844,124.267 292.800,115.200 292.800 L 105.600 292.800 105.600 294.400 C 105.600 295.733,105.733 296.000,106.400 296.000 C 106.840 296.000,107.200 296.251,107.200 296.557 C 107.200 297.195,108.049 297.600,109.386 297.600 C 109.970 297.600,110.383 297.892,110.516 298.400 C 110.631 298.840,111.012 299.200,111.363 299.200 C 112.467 299.200,112.308 313.426,111.200 313.716 C 110.516 313.895,110.400 314.262,110.400 316.238 L 110.400 318.551 109.600 317.692 C 109.160 317.220,108.800 316.391,108.800 315.849 C 108.800 314.453,108.405 313.600,107.757 313.600 C 107.374 313.600,107.200 313.101,107.200 312.000 C 107.200 310.667,107.067 310.400,106.400 310.400 C 105.733 310.400,105.600 310.133,105.600 308.800 C 105.600 307.467,105.467 307.200,104.800 307.200 C 104.140 307.200,104.000 306.933,104.000 305.675 C 104.000 303.571,102.851 302.400,100.784 302.400 C 99.467 302.400,99.200 302.535,99.200 303.200 C 99.200 303.733,98.933 304.000,98.400 304.000 C 97.883 304.000,97.600 304.267,97.600 304.753 C 97.600 305.170,97.243 305.600,96.800 305.716 C 96.187 305.876,96.000 306.262,96.000 307.363 C 96.000 308.533,95.852 308.800,95.200 308.800 C 94.683 308.800,94.400 309.067,94.400 309.553 C 94.400 309.970,94.043 310.400,93.600 310.516 C 93.017 310.668,92.800 311.062,92.800 311.963 C 92.800 312.805,92.605 313.200,92.190 313.200 C 91.855 313.200,91.418 313.625,91.221 314.145 C 91.023 314.665,90.577 315.200,90.231 315.333 C 89.856 315.477,89.600 316.048,89.600 316.741 C 89.600 317.570,89.369 317.967,88.800 318.116 C 88.038 318.315,88.000 318.128,88.000 314.163 C 88.000 310.267,88.051 310.000,88.800 310.000 C 89.553 310.000,89.600 309.733,89.600 305.427 C 89.600 301.205,89.661 300.834,90.400 300.600 C 90.995 300.411,91.200 299.995,91.200 298.973 C 91.200 297.905,91.364 297.600,91.938 297.600 C 92.344 297.600,93.002 297.240,93.400 296.800 C 93.798 296.360,94.473 296.000,94.899 296.000 C 95.338 296.000,95.766 295.653,95.884 295.200 C 96.030 294.644,96.430 294.400,97.198 294.400 C 98.714 294.400,99.271 293.570,99.124 291.530 L 99.000 289.800 96.933 289.680 C 95.144 289.577,94.831 289.671,94.606 290.380 C 94.355 291.173,94.064 291.200,85.773 291.200 C 77.467 291.200,77.200 291.225,77.200 292.000 C 77.200 292.776,76.933 292.800,68.200 292.800 C 60.774 292.800,59.200 292.703,59.200 292.243 C 59.200 291.277,58.217 291.200,45.967 291.200 L 34.000 291.200 34.000 293.437 C 34.000 295.338,34.120 295.706,34.800 295.884 C 35.709 296.122,35.905 297.600,35.027 297.600 C 34.712 297.600,34.345 297.943,34.212 298.363 C 34.079 298.783,33.716 299.223,33.407 299.342 C 33.097 299.461,32.724 300.197,32.578 300.979 C 32.384 302.011,32.104 302.400,31.555 302.400 C 31.067 302.400,30.800 302.682,30.800 303.200 C 30.800 303.665,30.533 304.000,30.163 304.000 C 29.812 304.000,29.431 304.360,29.316 304.800 C 29.201 305.240,28.870 305.600,28.580 305.600 C 28.291 305.600,27.940 305.960,27.800 306.400 C 27.660 306.840,27.198 307.200,26.773 307.200 C 26.051 307.200,26.000 306.876,26.000 302.262 C 26.000 297.031,26.357 296.000,28.169 296.000 C 28.557 296.000,28.969 295.640,29.084 295.200 C 29.200 294.757,29.630 294.400,30.047 294.400 C 30.533 294.400,30.800 294.117,30.800 293.600 C 30.800 293.067,31.067 292.800,31.600 292.800 C 32.267 292.800,32.400 292.533,32.400 291.200 L 32.400 289.600 26.200 289.600 C 20.267 289.600,20.000 289.634,20.000 290.400 M145.467 289.867 C 144.834 290.499,145.209 292.477,146.000 292.684 C 146.440 292.799,146.800 293.123,146.800 293.404 C 146.800 294.001,147.681 294.400,149.003 294.400 C 150.151 294.400,150.235 294.769,150.071 299.044 C 149.955 302.046,149.860 302.400,149.171 302.400 C 148.474 302.400,148.400 302.707,148.400 305.600 C 148.400 308.533,148.333 308.800,147.600 308.800 C 146.888 308.800,146.800 309.067,146.800 311.217 C 146.800 313.081,146.617 313.830,146.000 314.492 C 145.408 315.127,145.200 315.904,145.200 317.475 C 145.200 319.067,144.999 319.801,144.400 320.400 C 143.764 321.036,143.600 321.733,143.600 323.800 C 143.600 325.747,143.461 326.400,143.047 326.400 C 142.359 326.400,142.013 327.631,142.005 330.100 C 142.002 331.461,141.773 332.227,141.200 332.800 C 140.760 333.240,140.400 333.951,140.400 334.379 C 140.400 335.248,138.977 336.921,137.900 337.317 C 137.515 337.459,137.200 337.851,137.200 338.187 C 137.200 338.533,136.852 338.800,136.400 338.800 C 135.867 338.800,135.600 339.067,135.600 339.600 C 135.600 340.242,135.333 340.400,134.251 340.400 C 132.742 340.400,131.905 342.727,132.807 344.413 C 133.500 345.709,138.800 345.482,138.800 344.157 C 138.800 343.695,140.635 343.600,149.597 343.600 C 159.960 343.600,160.413 343.568,160.893 342.800 C 161.333 342.095,161.826 342.000,165.050 342.000 C 168.370 342.000,168.726 341.926,168.916 341.200 C 169.206 340.089,168.811 338.800,168.180 338.800 C 167.891 338.800,167.540 338.440,167.400 338.000 C 167.260 337.560,166.798 337.200,166.373 337.200 C 165.948 337.200,165.600 336.995,165.600 336.744 C 165.600 336.493,165.285 336.049,164.900 335.757 C 164.276 335.283,164.271 335.224,164.853 335.213 C 165.576 335.199,165.986 334.080,165.995 332.100 C 165.998 331.262,166.197 330.800,166.553 330.800 C 166.858 330.800,167.201 330.440,167.316 330.000 C 167.657 328.697,175.665 328.786,176.301 330.100 C 177.319 332.204,177.228 335.600,176.153 335.600 C 175.849 335.600,175.600 335.960,175.600 336.400 C 175.600 336.933,175.333 337.200,174.800 337.200 C 174.133 337.200,174.000 337.467,174.000 338.800 C 174.000 340.133,173.867 340.400,173.200 340.400 C 172.667 340.400,172.400 340.667,172.400 341.200 C 172.400 341.733,172.133 342.000,171.600 342.000 C 170.889 342.000,170.800 342.267,170.800 344.400 L 170.800 346.800 172.837 346.800 C 174.538 346.800,174.909 346.668,175.084 346.000 C 175.263 345.314,175.630 345.200,177.647 345.200 C 179.733 345.200,180.000 345.109,180.000 344.400 C 180.000 343.691,180.267 343.600,182.338 343.600 C 184.118 343.600,184.838 343.421,185.357 342.848 C 185.815 342.342,186.770 342.035,188.279 341.910 C 189.735 341.789,190.689 341.492,191.004 341.062 C 191.348 340.592,192.095 340.400,193.582 340.400 C 195.338 340.400,195.709 340.271,195.884 339.600 C 196.061 338.923,196.430 338.800,198.284 338.800 C 200.138 338.800,200.507 338.677,200.684 338.000 C 200.800 337.557,201.230 337.200,201.647 337.200 C 202.133 337.200,202.400 337.483,202.400 338.000 C 202.400 338.533,202.133 338.800,201.600 338.800 C 201.067 338.800,200.800 339.067,200.800 339.600 C 200.800 340.249,200.533 340.400,199.390 340.400 C 198.254 340.400,197.906 340.594,197.600 341.400 C 197.391 341.950,197.035 342.400,196.810 342.400 C 196.072 342.400,196.371 344.356,197.174 344.786 C 198.771 345.641,212.312 345.312,213.093 344.400 C 213.753 343.628,214.273 343.600,227.726 343.600 C 241.338 343.600,241.680 343.581,241.884 342.800 C 242.048 342.173,242.430 342.000,243.647 342.000 C 244.933 342.000,245.200 342.137,245.200 342.800 C 245.200 343.240,245.560 343.960,246.000 344.400 C 246.440 344.840,246.800 345.308,246.800 345.440 C 246.800 345.571,247.359 346.201,248.042 346.840 C 250.005 348.673,251.600 348.281,251.600 345.967 C 251.600 345.245,251.955 345.200,257.700 345.195 C 264.270 345.189,265.600 345.013,265.600 344.153 C 265.600 343.693,267.912 343.600,279.367 343.600 C 293.412 343.600,294.400 343.531,294.400 342.557 C 294.400 341.063,297.092 342.311,297.727 344.100 C 297.863 344.485,298.251 344.800,298.587 344.800 C 298.926 344.800,299.200 345.146,299.200 345.573 C 299.200 345.998,299.543 346.455,299.963 346.588 C 300.383 346.721,300.827 347.094,300.950 347.415 C 301.248 348.190,303.446 348.178,303.745 347.400 C 303.937 346.899,305.099 346.800,310.773 346.800 C 317.076 346.800,317.602 346.744,317.984 346.030 C 318.367 345.314,318.984 345.250,326.627 345.130 C 333.968 345.014,334.900 344.924,335.249 344.300 C 335.778 343.353,348.400 343.216,348.400 344.157 C 348.400 345.144,349.395 345.200,366.833 345.200 C 376.275 345.200,384.000 345.351,384.000 345.536 C 384.000 346.417,386.366 346.800,391.819 346.800 L 397.600 346.800 397.600 345.247 C 397.600 344.030,397.773 343.648,398.400 343.484 C 399.151 343.288,399.200 342.938,399.200 337.837 C 399.200 334.479,399.353 332.400,399.600 332.400 C 399.849 332.400,400.000 330.067,400.000 326.200 L 400.000 320.000 398.987 320.000 C 398.410 320.000,397.865 320.287,397.718 320.669 C 397.577 321.038,397.132 321.668,396.731 322.069 C 396.329 322.471,396.000 323.139,396.000 323.553 C 396.000 323.970,395.643 324.400,395.200 324.516 C 394.760 324.631,394.400 324.991,394.400 325.316 C 394.400 325.641,394.040 326.001,393.600 326.116 C 393.147 326.234,392.800 326.662,392.800 327.101 C 392.800 327.527,392.440 328.202,392.000 328.600 C 391.560 328.998,391.200 329.635,391.200 330.015 C 391.200 330.396,390.840 330.801,390.400 330.916 C 389.960 331.031,389.600 331.412,389.600 331.763 C 389.600 332.303,388.993 332.400,385.600 332.400 C 381.867 332.400,381.600 332.347,381.600 331.600 C 381.600 330.846,381.333 330.800,377.000 330.800 C 372.667 330.800,372.400 330.754,372.400 330.000 C 372.400 329.560,372.661 329.200,372.980 329.200 C 373.392 329.200,373.639 328.505,373.832 326.800 C 374.017 325.166,374.278 324.400,374.652 324.400 C 375.022 324.400,375.218 323.847,375.254 322.700 C 375.284 321.765,375.387 321.405,375.482 321.900 C 375.648 322.761,375.827 322.800,379.628 322.800 C 382.831 322.800,383.600 322.912,383.600 323.380 C 383.600 323.699,383.839 324.104,384.130 324.280 C 384.422 324.456,384.776 324.915,384.918 325.300 C 385.059 325.685,385.451 326.000,385.787 326.000 C 386.169 326.000,386.400 326.365,386.400 326.967 C 386.400 328.800,386.787 329.200,388.563 329.200 C 390.973 329.200,392.444 327.050,390.400 326.516 C 389.144 326.188,389.144 302.400,390.400 302.400 C 390.865 302.400,391.200 302.667,391.200 303.037 C 391.200 303.388,391.560 303.769,392.000 303.884 C 392.440 303.999,392.800 304.359,392.800 304.684 C 392.800 305.009,393.160 305.369,393.600 305.484 C 394.040 305.599,394.400 305.908,394.400 306.171 C 394.400 307.311,396.054 308.445,397.536 308.322 C 399.351 308.171,400.113 304.564,398.423 304.122 C 397.670 303.925,397.600 303.604,397.600 300.357 C 397.600 297.240,397.502 296.746,396.800 296.307 C 396.112 295.877,396.000 295.374,396.000 292.704 L 396.000 289.600 385.163 289.600 C 374.662 289.600,374.319 289.625,374.116 290.400 C 373.913 291.177,373.570 291.200,362.367 291.200 C 351.238 291.200,350.813 291.228,350.400 292.000 C 349.991 292.765,349.562 292.800,340.586 292.800 C 331.733 292.800,331.155 292.755,330.400 292.000 C 329.648 291.248,329.067 291.200,320.800 291.200 C 312.488 291.200,311.955 291.155,311.187 290.387 C 310.448 289.648,309.950 289.585,305.687 289.687 L 301.000 289.800 300.872 291.130 C 300.770 292.198,300.908 292.503,301.572 292.677 C 302.040 292.799,302.400 293.221,302.400 293.647 C 302.400 294.133,302.683 294.400,303.200 294.400 C 303.652 294.400,304.000 294.667,304.000 295.013 C 304.000 295.349,304.301 295.741,304.669 295.882 C 305.038 296.023,305.668 296.468,306.069 296.869 C 306.471 297.271,307.250 297.600,307.800 297.600 C 308.533 297.600,308.800 297.813,308.800 298.400 C 308.800 298.917,309.067 299.200,309.553 299.200 C 309.970 299.200,310.400 299.557,310.516 300.000 C 310.631 300.440,311.012 300.800,311.363 300.800 C 311.713 300.800,312.000 301.049,312.000 301.353 C 312.000 301.658,312.360 302.001,312.800 302.116 C 313.963 302.420,313.963 305.412,312.800 305.716 C 312.031 305.917,312.000 306.262,312.000 314.516 C 312.000 322.770,311.969 323.115,311.200 323.316 C 310.435 323.516,310.400 323.862,310.400 331.163 C 310.400 338.533,310.372 338.800,309.600 338.800 C 309.067 338.800,308.800 339.067,308.800 339.600 C 308.800 340.133,308.533 340.400,308.000 340.400 C 307.481 340.400,307.200 340.667,307.200 341.158 C 307.200 341.750,306.850 341.949,305.600 342.069 C 304.029 342.218,304.000 342.198,304.000 340.914 C 304.000 340.040,303.735 339.441,303.200 339.107 C 302.493 338.665,302.400 338.174,302.400 334.866 C 302.400 331.462,302.328 331.106,301.600 330.916 C 300.862 330.723,300.800 330.370,300.800 326.367 C 300.800 322.467,300.721 321.986,300.016 321.609 C 299.353 321.254,299.214 320.688,299.116 317.937 C 298.974 313.969,298.540 313.498,296.069 314.639 C 294.570 315.331,294.420 315.536,294.410 316.900 C 294.403 317.911,294.218 318.400,293.843 318.400 C 293.123 318.400,292.800 319.278,292.800 321.233 C 292.800 322.400,292.637 322.800,292.163 322.800 C 291.812 322.800,291.431 323.160,291.316 323.600 C 291.157 324.206,290.770 324.400,289.716 324.400 C 288.662 324.400,288.275 324.594,288.116 325.200 C 287.957 325.806,287.570 326.000,286.516 326.000 C 285.485 326.000,285.074 326.197,284.926 326.761 C 284.783 327.309,284.288 327.565,283.163 327.672 L 281.600 327.821 281.600 326.273 C 281.600 325.062,281.426 324.680,280.800 324.516 C 280.065 324.324,280.000 323.970,280.000 320.157 C 280.000 316.440,279.916 315.955,279.200 315.507 C 278.489 315.063,278.400 314.574,278.400 311.104 C 278.400 307.467,278.345 307.200,277.600 307.200 C 276.854 307.200,276.800 306.933,276.800 303.247 C 276.800 299.630,276.868 299.276,277.600 299.084 C 278.040 298.969,278.400 298.588,278.400 298.237 C 278.400 297.867,278.735 297.600,279.200 297.600 C 279.733 297.600,280.000 297.333,280.000 296.800 C 280.000 296.221,280.267 296.000,280.967 296.000 C 282.317 296.000,283.200 295.606,283.200 295.004 C 283.200 294.723,283.560 294.399,284.000 294.284 C 284.613 294.124,284.800 293.738,284.800 292.637 L 284.800 291.200 277.800 291.200 C 271.333 291.200,270.739 291.261,270.000 292.000 C 269.267 292.733,268.667 292.800,262.833 292.800 C 256.157 292.800,255.200 292.931,255.200 293.843 C 255.200 294.276,254.422 294.401,251.700 294.406 C 247.770 294.413,247.071 294.671,247.265 296.045 C 247.360 296.720,247.791 297.126,248.734 297.431 C 249.467 297.668,250.222 298.112,250.410 298.417 C 250.633 298.776,251.746 299.027,253.577 299.131 L 256.400 299.290 256.400 315.798 C 256.400 331.970,256.384 332.311,255.600 332.516 C 254.889 332.702,254.800 333.062,254.800 335.763 C 254.800 338.533,254.730 338.800,254.000 338.800 C 253.467 338.800,253.200 339.067,253.200 339.600 C 253.200 340.133,252.933 340.400,252.400 340.400 C 251.935 340.400,251.600 340.133,251.600 339.763 C 251.600 339.412,251.240 339.031,250.800 338.916 C 250.062 338.723,250.000 338.370,250.000 334.367 C 250.000 330.438,249.925 329.988,249.200 329.600 C 248.486 329.218,248.400 328.762,248.400 325.348 C 248.400 321.888,248.326 321.506,247.616 321.320 C 246.937 321.143,246.817 320.704,246.716 318.058 L 246.600 315.000 245.377 314.880 C 243.152 314.663,242.000 315.388,242.000 317.007 C 242.000 317.881,241.690 318.766,241.200 319.292 C 240.734 319.792,240.400 320.704,240.400 321.475 C 240.400 322.421,240.217 322.800,239.763 322.800 C 239.412 322.800,239.031 323.160,238.916 323.600 C 238.757 324.206,238.370 324.400,237.316 324.400 C 236.262 324.400,235.875 324.594,235.716 325.200 C 235.560 325.797,235.170 326.000,234.180 326.000 C 233.205 326.000,232.787 326.212,232.600 326.800 C 232.413 327.390,231.995 327.600,231.006 327.600 C 230.270 327.600,229.576 327.825,229.465 328.100 C 229.354 328.375,229.249 327.670,229.232 326.533 C 229.194 324.076,228.912 323.200,228.157 323.200 C 227.718 323.200,227.600 322.352,227.600 319.200 C 227.600 315.467,227.547 315.200,226.800 315.200 C 226.053 315.200,226.000 314.933,226.000 311.200 C 226.000 308.104,225.878 307.200,225.459 307.200 C 225.073 307.200,224.843 306.318,224.659 304.140 C 224.280 299.654,224.314 299.200,225.037 299.200 C 225.388 299.200,225.769 298.840,225.884 298.400 C 226.000 297.957,226.430 297.600,226.847 297.600 C 227.333 297.600,227.600 297.317,227.600 296.800 C 227.600 296.148,227.867 296.000,229.037 296.000 C 230.138 296.000,230.524 295.813,230.684 295.200 C 230.800 294.757,231.230 294.400,231.647 294.400 C 232.259 294.400,232.400 294.100,232.400 292.800 L 232.400 291.200 225.400 291.200 C 218.667 291.200,218.400 291.230,218.400 292.000 C 218.400 292.770,218.133 292.800,211.262 292.800 C 204.632 292.800,204.072 292.857,203.400 293.600 C 202.788 294.276,202.168 294.400,199.400 294.400 C 195.412 294.400,193.922 295.323,195.515 296.807 C 195.983 297.243,196.635 297.600,196.963 297.600 C 197.292 297.600,197.733 297.908,197.944 298.285 C 198.234 298.803,199.016 299.009,201.163 299.130 L 204.000 299.290 204.000 316.756 L 204.000 334.221 202.437 334.072 C 201.312 333.965,200.817 333.709,200.674 333.161 C 200.519 332.569,200.111 332.400,198.837 332.400 C 197.649 332.400,197.200 332.236,197.200 331.800 C 197.200 331.470,196.930 331.200,196.600 331.200 C 196.168 331.200,196.000 330.759,196.000 329.627 C 196.000 328.405,195.821 327.997,195.200 327.800 C 194.599 327.609,194.400 327.195,194.400 326.136 C 194.400 325.062,194.209 324.675,193.600 324.516 C 192.973 324.352,192.800 323.970,192.800 322.753 C 192.800 321.467,192.663 321.200,192.000 321.200 C 191.334 321.200,191.200 320.933,191.200 319.603 C 191.200 318.440,190.983 317.871,190.400 317.507 C 189.803 317.135,189.600 316.574,189.600 315.304 C 189.600 313.867,189.475 313.600,188.800 313.600 C 188.133 313.600,188.000 313.333,188.000 312.000 C 188.000 310.667,187.867 310.400,187.200 310.400 C 186.533 310.400,186.400 310.133,186.400 308.800 C 186.400 307.467,186.267 307.200,185.600 307.200 C 184.933 307.200,184.800 306.933,184.800 305.600 C 184.800 304.533,184.533 303.733,184.000 303.200 C 183.497 302.697,183.200 301.867,183.200 300.963 C 183.200 299.862,183.013 299.476,182.400 299.316 C 181.779 299.154,181.600 298.770,181.600 297.604 L 181.600 296.102 183.654 295.904 C 184.983 295.777,185.838 295.476,186.074 295.054 C 186.275 294.694,186.926 294.397,187.520 294.394 C 189.112 294.385,189.681 293.865,189.532 292.557 L 189.400 291.400 184.743 291.288 C 180.498 291.185,180.069 291.106,179.881 290.388 C 179.672 289.590,146.249 289.084,145.467 289.867 M62.227 297.600 C 62.694 297.600,63.402 297.960,63.800 298.400 C 64.198 298.840,64.856 299.200,65.262 299.200 C 65.888 299.200,66.000 299.527,66.000 301.353 C 66.000 303.170,66.125 303.539,66.800 303.716 C 67.551 303.912,67.600 304.262,67.600 309.363 C 67.600 314.267,67.678 314.878,68.400 315.600 C 69.122 316.322,69.200 316.933,69.200 321.837 C 69.200 326.891,69.255 327.289,69.979 327.479 C 71.292 327.822,71.409 338.802,70.100 338.801 C 69.466 338.800,69.200 339.037,69.200 339.600 C 69.200 340.267,68.933 340.400,67.600 340.400 C 66.425 340.400,66.000 340.236,66.000 339.783 C 66.000 339.444,65.640 338.780,65.200 338.308 C 64.760 337.836,64.400 337.106,64.400 336.687 C 64.400 336.262,64.047 335.833,63.600 335.716 C 63.157 335.600,62.800 335.170,62.800 334.753 C 62.800 334.267,62.517 334.000,62.000 334.000 C 61.348 334.000,61.200 333.733,61.200 332.563 C 61.200 331.462,61.013 331.076,60.400 330.916 C 59.957 330.800,59.600 330.370,59.600 329.953 C 59.600 329.467,59.317 329.200,58.800 329.200 C 58.221 329.200,58.000 328.933,58.000 328.233 C 58.000 326.852,57.602 326.000,56.957 326.000 C 56.651 326.000,56.400 325.640,56.400 325.200 C 56.400 324.667,56.133 324.400,55.600 324.400 C 54.981 324.400,54.800 324.133,54.800 323.223 C 54.800 322.544,54.493 321.824,54.074 321.523 C 53.674 321.235,53.230 320.685,53.086 320.300 C 52.943 319.915,52.549 319.600,52.213 319.600 C 51.794 319.600,51.600 319.207,51.600 318.363 C 51.600 317.462,51.383 317.068,50.800 316.916 C 50.340 316.796,50.000 316.370,50.000 315.916 C 50.000 315.462,49.660 315.036,49.200 314.916 C 48.626 314.766,48.400 314.370,48.400 313.516 C 48.400 312.662,48.174 312.266,47.600 312.116 C 47.157 312.000,46.800 311.570,46.800 311.153 C 46.800 310.667,46.517 310.400,46.000 310.400 C 45.424 310.400,45.200 310.133,45.200 309.447 C 45.200 308.830,45.482 308.419,46.000 308.284 C 46.440 308.169,46.800 307.788,46.800 307.437 C 46.800 307.067,47.135 306.800,47.600 306.800 C 48.044 306.800,48.400 306.533,48.400 306.200 C 48.400 305.870,48.687 305.600,49.037 305.600 C 49.388 305.600,49.769 305.240,49.884 304.800 C 49.999 304.360,50.280 304.000,50.509 304.000 C 50.737 304.000,51.514 303.550,52.236 303.000 C 52.957 302.450,53.730 302.000,53.953 302.000 C 54.177 302.000,54.504 301.761,54.680 301.470 C 54.856 301.178,55.315 300.824,55.700 300.682 C 56.085 300.541,56.400 300.149,56.400 299.813 C 56.400 299.476,56.687 299.200,57.037 299.200 C 57.388 299.200,57.769 298.840,57.884 298.400 C 57.999 297.960,58.348 297.600,58.659 297.600 C 58.970 297.600,59.328 297.333,59.453 297.006 C 59.655 296.480,59.779 296.480,60.530 297.006 C 60.996 297.333,61.760 297.600,62.227 297.600 M343.716 298.400 C 343.876 299.013,344.262 299.200,345.363 299.200 L 346.800 299.200 346.800 302.200 C 346.800 304.933,346.871 305.200,347.600 305.200 C 348.361 305.200,348.400 305.467,348.400 310.725 C 348.400 315.696,348.480 316.335,349.200 317.108 C 349.901 317.861,350.001 318.524,350.005 322.483 C 350.012 327.495,350.227 328.800,351.047 328.800 C 351.474 328.800,351.600 329.572,351.600 332.200 C 351.600 335.333,351.537 335.600,350.800 335.600 C 350.267 335.600,350.000 335.867,350.000 336.400 C 350.000 337.102,349.718 337.206,347.700 337.246 C 344.397 337.312,343.881 337.209,343.287 336.359 C 342.969 335.906,342.280 335.600,341.577 335.600 C 340.667 335.600,340.400 335.419,340.400 334.800 C 340.400 334.246,340.133 334.000,339.531 334.000 C 337.782 334.000,337.200 332.926,337.200 329.701 C 337.200 327.062,337.110 326.701,336.400 326.516 C 335.682 326.328,335.600 325.970,335.600 323.015 C 335.600 320.232,335.477 319.612,334.800 319.000 C 334.130 318.393,334.000 317.768,334.000 315.138 C 334.000 312.267,333.932 312.000,333.200 312.000 C 332.453 312.000,332.400 311.733,332.400 308.000 C 332.400 304.267,332.347 304.000,331.600 304.000 C 330.933 304.000,330.800 303.733,330.800 302.400 C 330.800 300.974,330.905 300.800,331.767 300.800 C 333.148 300.800,334.000 300.402,334.000 299.757 C 334.000 299.343,334.615 299.200,336.400 299.200 C 338.533 299.200,338.800 299.111,338.800 298.400 C 338.800 297.691,339.067 297.600,341.153 297.600 C 343.170 297.600,343.537 297.714,343.716 298.400 M385.043 303.033 C 384.909 303.381,384.800 304.101,384.800 304.633 C 384.800 305.333,384.579 305.600,384.000 305.600 C 383.467 305.600,383.200 305.867,383.200 306.400 C 383.200 306.986,382.933 307.200,382.203 307.200 C 381.640 307.200,380.990 307.548,380.707 308.000 C 380.276 308.691,379.774 308.800,377.042 308.800 C 374.000 308.800,373.902 308.771,374.538 308.069 C 375.003 307.554,375.200 306.604,375.200 304.869 L 375.200 302.400 380.243 302.400 C 384.677 302.400,385.256 302.476,385.043 303.033 M170.797 312.458 L 170.800 314.716 169.200 314.869 L 167.600 315.021 167.600 312.511 C 167.600 310.546,167.730 310.000,168.200 310.000 C 168.530 310.000,168.800 309.837,168.800 309.638 C 168.800 309.438,169.249 309.483,169.797 309.738 C 170.686 310.150,170.794 310.443,170.797 312.458 " stroke="none" fill="#050505" fill-rule="evenodd"></path><path id="path1" d="M166.500 9.592 C 165.799 10.246,165.090 10.400,162.779 10.400 C 160.262 10.400,159.900 10.494,159.716 11.200 C 159.539 11.877,159.170 12.000,157.316 12.000 C 155.462 12.000,155.093 12.123,154.916 12.800 C 154.743 13.461,154.370 13.600,152.767 13.600 C 151.258 13.600,150.736 13.772,150.413 14.376 C 150.140 14.887,149.485 15.194,148.499 15.276 C 147.359 15.370,147.013 15.567,147.056 16.100 C 147.100 16.659,146.790 16.800,145.518 16.800 C 144.262 16.800,143.881 16.969,143.716 17.600 C 143.557 18.206,143.170 18.400,142.116 18.400 C 141.062 18.400,140.675 18.594,140.516 19.200 C 140.357 19.806,139.970 20.000,138.916 20.000 C 137.862 20.000,137.475 20.194,137.316 20.800 C 137.168 21.364,136.770 21.600,135.967 21.600 C 135.238 21.600,134.674 21.887,134.400 22.400 C 134.165 22.840,133.663 23.206,133.286 23.213 C 132.431 23.229,131.121 24.188,131.473 24.540 C 131.616 24.683,131.274 24.800,130.713 24.800 C 130.009 24.800,129.624 25.064,129.471 25.652 C 129.343 26.140,129.024 26.419,128.724 26.305 C 127.915 25.997,126.400 26.702,126.400 27.387 C 126.400 27.733,126.052 28.000,125.600 28.000 C 125.160 28.000,124.800 28.249,124.800 28.553 C 124.800 29.012,124.071 29.440,122.771 29.746 C 122.646 29.776,122.228 30.115,121.843 30.500 C 121.458 30.885,120.886 31.200,120.571 31.200 C 120.257 31.200,120.000 31.372,120.000 31.582 C 120.000 32.454,117.169 34.650,116.289 34.460 C 116.118 34.423,115.873 34.664,115.746 34.996 C 115.619 35.328,115.274 35.600,114.980 35.600 C 114.686 35.600,114.210 35.927,113.923 36.326 C 113.635 36.726,113.085 37.170,112.700 37.314 C 112.315 37.457,112.000 37.851,112.000 38.187 C 112.000 38.533,111.652 38.800,111.200 38.800 C 110.667 38.800,110.400 39.067,110.400 39.600 C 110.400 40.117,110.133 40.400,109.647 40.400 C 109.232 40.400,108.802 40.748,108.691 41.174 C 108.558 41.682,107.995 42.040,107.048 42.217 C 106.255 42.366,105.698 42.636,105.810 42.816 C 105.922 42.997,105.827 43.260,105.600 43.400 C 105.373 43.540,105.278 43.803,105.389 43.982 C 105.500 44.162,105.368 44.285,105.096 44.255 C 104.823 44.225,104.545 44.380,104.479 44.600 C 104.412 44.820,103.912 45.234,103.367 45.519 C 102.822 45.804,102.482 46.209,102.612 46.419 C 102.741 46.629,102.387 46.800,101.824 46.800 C 101.088 46.800,100.800 47.012,100.800 47.553 C 100.800 47.970,100.443 48.400,100.000 48.516 C 99.560 48.631,99.200 49.012,99.200 49.363 C 99.200 49.713,98.942 50.000,98.627 50.000 C 98.312 50.000,97.940 50.360,97.800 50.800 C 97.660 51.240,97.300 51.600,97.000 51.600 C 96.700 51.600,96.340 51.960,96.200 52.400 C 96.060 52.840,95.700 53.200,95.400 53.200 C 95.100 53.200,94.740 53.560,94.600 54.000 C 94.369 54.727,93.925 54.978,93.100 54.847 C 92.935 54.821,92.800 55.160,92.800 55.600 C 92.800 56.040,92.559 56.400,92.264 56.400 C 91.970 56.400,91.523 56.850,91.273 57.400 C 91.022 57.950,90.521 58.400,90.160 58.400 C 89.620 58.400,89.592 58.508,90.000 59.000 C 90.489 59.589,90.146 59.824,89.070 59.637 C 88.889 59.606,88.867 59.785,89.022 60.035 C 89.176 60.285,89.054 60.643,88.751 60.830 C 88.448 61.018,88.178 61.357,88.150 61.585 C 88.123 61.813,88.078 62.180,88.050 62.400 C 88.023 62.620,87.640 62.800,87.200 62.800 C 86.683 62.800,86.400 63.067,86.400 63.553 C 86.400 63.982,86.038 64.401,85.560 64.526 C 85.063 64.656,84.834 64.932,85.000 65.200 C 85.165 65.467,84.944 65.742,84.463 65.868 C 84.013 65.985,83.590 66.468,83.522 66.941 C 83.455 67.413,83.175 67.823,82.900 67.850 C 81.877 67.952,81.814 68.021,82.400 68.400 C 82.730 68.613,82.795 68.791,82.543 68.794 C 82.292 68.797,81.974 69.250,81.836 69.800 C 81.698 70.350,81.338 70.800,81.036 70.800 C 80.734 70.800,80.374 71.250,80.236 71.800 C 80.098 72.350,79.808 72.800,79.592 72.800 C 79.377 72.800,79.200 72.991,79.200 73.224 C 79.200 73.457,79.425 73.518,79.700 73.359 C 79.990 73.192,80.060 73.224,79.867 73.436 C 79.683 73.636,79.326 73.800,79.072 73.800 C 78.818 73.800,78.543 74.160,78.461 74.600 C 78.378 75.040,78.061 75.544,77.755 75.720 C 77.450 75.896,77.200 76.571,77.200 77.220 C 77.200 78.273,76.855 78.598,75.900 78.447 C 75.735 78.421,75.598 78.805,75.595 79.300 C 75.585 80.931,75.120 82.055,74.547 81.835 C 74.143 81.680,74.000 82.026,74.000 83.166 C 74.000 84.370,73.825 84.752,73.200 84.916 C 72.564 85.082,72.400 85.462,72.400 86.763 C 72.400 87.663,72.265 88.379,72.100 88.353 C 71.148 88.202,70.800 88.527,70.800 89.567 C 70.800 91.199,70.425 91.999,69.657 92.006 C 69.087 92.011,69.079 92.063,69.600 92.400 C 69.962 92.634,70.010 92.790,69.723 92.794 C 69.449 92.797,69.194 93.524,69.123 94.500 C 69.028 95.816,68.845 96.188,68.316 96.147 C 67.939 96.118,67.646 96.208,67.663 96.347 C 67.947 98.614,67.523 100.800,66.800 100.800 C 66.089 100.800,66.000 101.067,66.000 103.200 C 66.000 105.333,65.911 105.600,65.200 105.600 C 64.491 105.600,64.400 105.867,64.400 107.953 C 64.400 109.970,64.286 110.337,63.600 110.516 C 62.925 110.692,62.800 111.062,62.800 112.874 C 62.800 114.565,62.629 115.147,62.000 115.600 C 61.335 116.079,61.200 116.635,61.200 118.888 C 61.200 121.311,61.117 121.600,60.419 121.600 C 59.741 121.600,59.623 121.928,59.519 124.100 C 59.432 125.919,59.256 126.570,58.870 126.490 C 58.579 126.430,58.455 126.565,58.594 126.790 C 58.733 127.016,58.657 127.200,58.424 127.200 C 58.191 127.200,58.021 127.335,58.047 127.500 C 58.393 129.689,57.917 132.728,57.200 132.916 C 56.495 133.100,56.400 133.462,56.400 135.963 C 56.400 138.436,56.307 138.800,55.675 138.800 C 55.088 138.800,54.934 139.162,54.867 140.700 C 54.746 143.525,54.404 144.800,53.768 144.800 C 53.336 144.800,53.200 145.416,53.200 147.367 C 53.200 150.284,52.949 151.232,52.246 150.962 C 51.891 150.826,51.729 151.725,51.649 154.285 C 51.536 157.899,51.461 158.200,50.667 158.200 C 50.352 158.200,50.162 159.434,50.084 161.985 C 49.987 165.136,49.836 165.893,49.184 166.501 C 47.975 167.627,47.989 179.656,49.200 180.693 C 49.769 181.180,50.000 181.873,50.000 183.089 C 50.000 184.533,50.125 184.800,50.800 184.800 C 51.308 184.800,51.600 185.067,51.600 185.532 C 51.600 186.144,51.972 186.278,53.893 186.356 C 55.563 186.423,56.382 186.659,56.909 187.224 C 57.910 188.299,60.256 188.284,60.600 187.200 C 60.826 186.488,65.633 185.948,68.112 186.357 C 68.284 186.385,68.813 186.046,69.288 185.604 C 69.950 184.987,70.700 184.800,72.513 184.800 C 74.538 184.800,74.905 184.686,75.084 184.000 C 75.271 183.285,75.630 183.200,78.447 183.200 C 81.333 183.200,81.600 183.132,81.600 182.400 C 81.600 181.633,81.867 181.600,88.000 181.600 L 94.400 181.600 94.400 187.400 C 94.400 194.255,94.354 193.659,94.934 194.377 C 95.311 194.843,95.285 194.886,94.800 194.600 C 94.284 194.296,94.276 194.340,94.745 194.919 C 95.045 195.289,95.429 195.506,95.598 195.401 C 95.766 195.297,95.936 197.054,95.975 199.306 C 96.069 204.794,96.094 204.957,96.900 205.287 C 97.493 205.530,97.600 206.121,97.600 209.164 C 97.600 211.278,97.776 212.861,98.027 213.017 C 98.262 213.162,98.360 213.527,98.245 213.828 C 98.129 214.128,98.235 214.498,98.479 214.649 C 98.767 214.827,98.810 214.739,98.600 214.400 C 98.386 214.054,98.433 213.973,98.738 214.162 C 99.035 214.345,99.200 215.802,99.200 218.228 C 99.200 221.476,99.309 222.101,99.977 222.674 C 101.200 223.720,101.214 247.750,99.993 248.404 C 99.312 248.768,99.200 249.247,99.200 251.787 C 99.200 254.334,99.095 254.779,98.446 254.985 C 98.032 255.117,97.700 255.444,97.709 255.712 C 97.835 259.427,97.558 261.200,96.852 261.200 C 96.405 261.200,96.105 261.482,96.107 261.900 C 96.121 265.582,95.942 267.611,95.620 267.412 C 94.985 267.020,94.400 268.631,94.400 270.774 C 94.400 271.888,94.242 272.800,94.049 272.800 C 93.346 272.800,92.759 275.126,92.878 277.436 L 93.000 279.800 95.868 279.917 C 98.458 280.022,98.760 279.955,98.995 279.217 C 99.248 278.420,99.898 278.291,103.666 278.290 C 104.038 278.290,104.247 278.067,104.139 277.786 C 103.849 277.029,104.386 276.856,107.324 276.761 C 109.786 276.681,110.203 276.488,110.047 275.500 C 110.009 275.254,113.039 274.991,114.088 275.149 C 114.246 275.173,114.568 274.834,114.802 274.396 C 115.148 273.750,115.641 273.600,117.414 273.600 C 119.333 273.600,119.600 273.502,119.600 272.800 C 119.600 272.133,119.882 271.992,121.300 271.954 C 122.235 271.928,123.262 271.883,123.583 271.854 C 123.906 271.824,124.291 271.187,124.448 270.420 C 124.604 269.660,125.017 268.830,125.366 268.575 C 125.802 268.256,126.000 267.471,126.000 266.056 C 126.000 264.267,126.104 264.000,126.800 264.000 C 127.467 264.000,127.600 263.733,127.600 262.400 C 127.600 260.927,127.867 260.589,128.900 260.753 C 129.065 260.779,129.179 260.665,129.153 260.500 C 128.973 259.365,129.258 254.409,129.500 254.447 C 130.400 254.589,130.760 254.289,130.873 253.300 C 130.943 252.695,130.978 255.349,130.950 259.199 C 130.889 267.880,130.639 267.275,134.224 267.142 C 135.830 267.082,137.078 266.927,136.998 266.797 C 136.605 266.160,137.618 265.639,139.470 265.527 C 140.600 265.458,141.441 265.267,141.339 265.101 C 141.236 264.935,141.388 264.797,141.676 264.794 C 142.057 264.789,142.036 264.682,141.600 264.400 C 141.174 264.124,141.656 264.010,143.267 264.006 C 145.903 263.999,146.800 263.733,146.800 262.957 C 146.800 262.525,147.556 262.400,150.167 262.400 C 153.925 262.400,154.847 262.188,154.542 261.392 C 154.377 260.962,154.778 260.897,156.490 261.074 C 158.191 261.249,158.790 261.153,159.323 260.619 C 159.696 260.247,160.000 260.080,160.000 260.248 C 160.000 260.416,160.264 260.204,160.587 259.776 C 160.910 259.349,161.180 258.325,161.187 257.500 C 161.194 256.675,161.335 256.021,161.500 256.047 C 162.425 256.193,162.800 255.893,162.800 255.003 C 162.800 254.440,163.148 253.790,163.600 253.507 C 164.040 253.232,164.400 252.614,164.400 252.132 C 164.400 251.651,164.715 250.942,165.100 250.556 C 165.767 249.888,165.805 250.115,165.911 255.328 L 166.023 260.800 168.583 260.800 C 170.488 260.800,171.322 260.621,171.843 260.100 C 172.925 259.018,200.102 259.040,200.895 260.124 C 201.338 260.729,201.943 260.817,205.007 260.717 L 208.600 260.600 208.648 258.517 C 208.674 257.372,208.584 256.448,208.448 256.465 C 207.483 256.581,207.200 256.253,207.200 255.019 C 207.200 253.432,206.446 251.524,205.942 251.836 C 205.754 251.952,205.600 251.227,205.600 250.224 C 205.600 248.708,205.473 248.400,204.851 248.400 C 204.241 248.400,204.065 248.016,203.903 246.333 C 203.785 245.107,203.449 244.079,203.076 243.806 C 202.630 243.480,202.422 242.563,202.360 240.651 C 202.291 238.535,202.112 237.843,201.523 237.431 C 200.509 236.721,200.581 227.400,201.600 227.400 C 202.097 227.400,202.223 226.474,202.334 222.003 C 202.458 216.989,202.752 215.676,203.630 216.219 C 203.778 216.310,203.941 214.633,203.993 212.492 C 204.046 210.352,204.099 208.400,204.111 208.155 C 204.123 207.910,204.471 207.798,204.884 207.906 C 205.296 208.014,205.605 207.944,205.570 207.751 C 205.309 206.331,205.667 200.394,206.001 200.600 C 206.672 201.015,207.200 198.909,207.200 195.821 C 207.200 193.230,207.292 192.869,208.000 192.684 C 208.440 192.569,208.800 192.199,208.800 191.862 C 208.800 191.442,209.273 191.209,210.300 191.124 C 211.441 191.030,211.787 190.833,211.744 190.300 C 211.700 189.744,212.008 189.600,213.244 189.600 C 214.673 189.600,215.009 189.327,214.847 188.300 C 214.821 188.135,215.593 188.000,216.563 188.000 C 218.128 188.000,218.302 187.911,218.116 187.200 C 217.929 186.487,218.104 186.400,219.716 186.400 C 221.294 186.400,221.500 186.303,221.327 185.643 C 221.158 184.995,221.394 184.865,222.965 184.740 C 224.752 184.598,224.800 184.624,224.800 185.740 C 224.800 186.594,224.647 186.827,224.200 186.655 C 223.870 186.529,223.578 186.599,223.550 186.813 C 223.523 187.026,223.455 187.380,223.400 187.600 C 223.345 187.820,223.278 188.469,223.250 189.043 C 223.214 189.795,223.033 190.021,222.600 189.855 C 222.270 189.729,221.985 189.754,221.967 189.913 C 221.656 192.634,220.931 194.528,220.340 194.163 C 220.153 194.047,220.000 194.335,220.000 194.803 C 220.000 195.952,219.251 197.279,218.770 196.981 C 218.556 196.849,218.406 196.889,218.437 197.070 C 218.748 198.856,218.331 201.106,217.700 201.056 C 217.160 201.013,216.970 201.365,216.870 202.595 C 216.732 204.290,216.146 205.338,215.545 204.966 C 215.344 204.842,215.206 204.889,215.237 205.070 C 215.553 206.888,215.133 209.224,214.509 209.118 C 213.758 208.990,213.751 209.020,213.661 212.700 C 213.616 214.533,213.452 215.200,213.047 215.200 C 212.316 215.200,212.012 216.454,212.005 219.500 C 212.001 221.462,211.828 222.172,211.200 222.800 C 210.444 223.556,210.400 224.133,210.400 233.400 C 210.400 243.193,210.434 243.447,211.700 243.247 C 211.865 243.221,212.004 244.955,212.009 247.100 C 212.016 250.354,212.147 251.166,212.800 252.000 C 213.421 252.793,213.584 253.640,213.591 256.100 C 213.599 258.898,213.676 259.200,214.376 259.200 C 214.984 259.200,215.179 259.525,215.276 260.700 C 215.430 262.567,217.528 263.072,219.088 261.618 C 220.416 260.381,232.366 260.366,233.600 261.600 C 234.339 262.339,234.943 262.401,241.500 262.413 C 248.280 262.425,250.658 262.808,249.727 263.740 C 249.584 263.883,251.027 264.000,252.933 264.000 C 255.630 264.000,256.400 264.124,256.400 264.557 C 256.400 265.353,257.308 265.600,260.233 265.600 C 262.233 265.600,262.800 265.731,262.800 266.192 C 262.800 267.007,264.094 267.260,267.537 267.119 L 270.465 267.000 270.532 263.100 C 270.570 260.955,270.471 259.200,270.313 259.200 C 270.154 259.200,270.128 258.932,270.254 258.603 C 270.380 258.275,270.219 257.906,269.897 257.782 C 269.477 257.621,269.286 256.800,269.221 254.879 C 269.172 253.405,269.075 251.660,269.006 251.000 C 268.936 250.340,268.861 249.485,268.840 249.100 C 268.818 248.715,268.596 248.445,268.346 248.500 C 267.856 248.608,266.761 244.592,267.159 244.144 C 267.292 243.994,267.173 244.003,266.895 244.162 C 266.551 244.361,266.313 244.063,266.145 243.227 C 266.010 242.552,265.748 242.000,265.563 242.000 C 265.377 242.000,265.328 241.732,265.454 241.403 C 265.585 241.063,265.408 240.701,265.042 240.561 C 264.689 240.425,264.400 239.884,264.400 239.357 C 264.400 238.831,264.062 238.062,263.650 237.650 C 263.010 237.010,262.717 236.048,262.334 233.322 C 262.297 233.059,262.072 232.879,261.833 232.922 C 261.595 232.965,261.352 232.460,261.294 231.800 C 261.053 229.056,260.744 228.000,260.182 228.000 C 259.308 228.000,259.315 211.799,260.189 211.310 C 260.976 210.870,261.135 209.792,261.170 204.676 C 261.189 201.883,261.343 200.441,261.603 200.602 C 262.301 201.033,262.725 199.110,262.770 195.300 C 262.800 192.788,263.968 191.609,264.654 193.398 C 264.781 193.726,265.048 193.894,265.248 193.770 C 265.449 193.646,265.509 193.377,265.383 193.172 C 265.256 192.968,265.322 192.800,265.530 192.800 C 265.737 192.800,266.001 193.160,266.116 193.600 C 266.307 194.330,266.662 194.400,270.163 194.400 C 274.232 194.400,274.227 194.397,274.030 196.449 C 273.995 196.806,274.289 197.183,274.683 197.286 C 275.300 197.447,275.418 198.026,275.526 201.412 C 275.626 204.543,275.790 205.451,276.326 205.843 C 277.415 206.639,277.278 254.669,276.188 254.251 C 275.802 254.103,275.677 255.812,275.633 261.849 L 275.576 269.638 276.757 270.819 C 277.452 271.514,278.361 272.000,278.966 272.000 C 279.560 272.000,280.204 272.337,280.493 272.800 C 280.849 273.370,281.426 273.600,282.496 273.600 C 283.467 273.600,283.965 273.773,283.900 274.088 C 283.844 274.363,284.583 274.784,285.600 275.055 C 286.590 275.320,287.220 275.556,287.000 275.581 C 286.118 275.680,288.231 276.800,289.300 276.800 C 289.964 276.800,290.343 276.969,290.200 277.201 C 289.952 277.602,291.606 278.414,292.872 278.513 C 293.242 278.542,293.462 278.700,293.361 278.863 C 292.986 279.470,294.891 280.037,296.912 279.920 L 299.000 279.800 299.082 276.600 C 299.128 274.840,299.173 267.803,299.182 260.961 C 299.199 249.155,299.240 248.476,299.991 247.610 C 301.067 246.370,301.075 202.600,300.000 202.600 C 299.522 202.600,299.377 201.899,299.285 199.149 C 299.191 196.319,299.029 195.569,298.385 194.987 C 297.812 194.468,297.600 193.756,297.600 192.352 C 297.600 190.838,297.430 190.337,296.800 190.000 C 296.165 189.660,296.000 189.162,296.000 187.589 C 296.000 186.040,295.825 185.498,295.200 185.107 C 294.060 184.395,294.157 183.200,295.356 183.200 C 296.020 183.200,296.294 182.987,296.256 182.500 C 296.215 181.983,296.552 181.766,297.545 181.671 C 298.471 181.583,298.953 181.302,299.092 180.771 C 299.239 180.208,299.646 180.000,300.600 180.000 C 301.570 180.000,301.961 179.794,302.116 179.200 C 302.310 178.456,302.662 178.400,307.116 178.400 C 311.570 178.400,311.921 178.456,312.116 179.200 C 312.276 179.813,312.662 180.000,313.763 180.000 C 314.933 180.000,315.200 180.148,315.200 180.800 C 315.200 181.467,315.467 181.600,316.800 181.600 C 318.133 181.600,318.400 181.733,318.400 182.400 C 318.400 182.929,318.667 183.200,319.186 183.200 C 319.618 183.200,320.164 183.558,320.398 183.996 C 320.632 184.434,320.954 184.773,321.112 184.749 C 322.265 184.575,323.136 184.911,323.316 185.600 C 323.476 186.213,323.862 186.400,324.963 186.400 C 325.925 186.400,326.400 186.584,326.400 186.957 C 326.400 187.264,326.685 187.624,327.033 187.757 C 329.323 188.636,337.301 187.554,335.096 186.664 C 334.823 186.553,335.157 186.449,335.838 186.432 C 336.535 186.414,337.392 186.051,337.800 185.600 C 338.198 185.160,338.721 184.798,338.962 184.796 C 339.550 184.790,342.000 182.240,342.000 181.634 C 342.000 181.369,342.160 181.251,342.355 181.372 C 342.550 181.493,342.894 181.368,343.121 181.096 C 343.561 180.565,343.600 180.414,343.600 179.247 C 343.600 178.830,343.957 178.400,344.400 178.284 C 345.009 178.125,345.200 177.738,345.200 176.664 C 345.200 175.623,345.402 175.190,345.970 175.009 C 347.204 174.618,347.246 158.442,346.014 158.119 C 345.287 157.929,345.200 157.587,345.200 154.916 C 345.200 152.262,345.110 151.902,344.400 151.716 C 343.683 151.528,343.228 148.858,343.548 146.714 C 343.571 146.557,343.324 146.531,342.999 146.656 C 342.295 146.926,342.080 146.406,341.905 144.000 C 341.814 142.744,341.597 142.200,341.187 142.200 C 340.754 142.200,340.569 141.604,340.481 139.921 C 340.384 138.072,340.214 137.595,339.581 137.394 C 338.965 137.198,338.800 136.781,338.800 135.417 C 338.800 134.017,338.667 133.699,338.100 133.744 C 337.598 133.784,337.369 133.461,337.290 132.600 C 337.080 130.296,336.785 129.520,336.204 129.743 C 335.780 129.906,335.613 129.499,335.521 128.079 C 335.434 126.729,335.231 126.200,334.800 126.200 C 334.395 126.200,334.160 125.711,334.076 124.700 C 333.979 123.525,333.784 123.200,333.176 123.200 C 332.474 123.200,332.068 121.394,332.348 119.514 C 332.371 119.357,332.091 119.344,331.726 119.484 C 331.218 119.679,331.124 119.576,331.326 119.049 C 331.484 118.638,331.431 118.457,331.195 118.603 C 330.968 118.743,330.800 118.333,330.800 117.639 C 330.800 116.956,330.461 116.115,330.018 115.703 C 329.576 115.291,329.194 114.345,329.139 113.526 C 329.061 112.371,328.895 112.105,328.321 112.215 C 327.762 112.323,327.600 112.097,327.600 111.210 C 327.600 109.661,327.228 108.800,326.557 108.800 C 326.235 108.800,326.000 108.393,326.000 107.833 C 326.000 106.452,325.602 105.600,324.957 105.600 C 324.635 105.600,324.400 105.193,324.400 104.633 C 324.400 103.241,324.001 102.400,323.340 102.400 C 323.024 102.400,322.794 102.175,322.830 101.900 C 322.968 100.840,322.782 100.364,322.338 100.638 C 322.044 100.820,321.985 100.747,322.177 100.437 C 322.343 100.169,322.215 99.646,321.893 99.275 C 321.571 98.904,321.188 98.098,321.042 97.484 C 320.896 96.870,320.600 96.477,320.384 96.610 C 320.167 96.744,319.880 96.301,319.745 95.627 C 319.610 94.952,319.253 94.400,318.950 94.400 C 318.475 94.400,318.159 93.032,318.364 91.866 C 318.396 91.682,318.075 91.440,317.649 91.329 C 317.157 91.200,316.785 90.644,316.627 89.802 C 316.490 89.073,316.113 88.376,315.789 88.251 C 315.465 88.127,315.200 87.758,315.200 87.431 C 315.200 87.104,314.740 86.377,314.178 85.815 C 313.617 85.253,313.260 84.627,313.385 84.424 C 313.511 84.221,313.284 83.817,312.880 83.527 C 312.119 82.980,311.490 81.815,311.244 80.500 C 311.213 80.335,311.013 80.470,310.800 80.800 C 310.492 81.276,310.410 81.193,310.400 80.400 C 310.386 79.271,309.887 78.307,309.355 78.382 C 309.160 78.409,308.944 78.075,308.875 77.638 C 308.796 77.138,308.538 76.926,308.178 77.064 C 307.538 77.309,306.816 75.835,307.023 74.708 C 307.094 74.328,307.027 74.034,306.875 74.056 C 306.049 74.173,305.600 73.929,305.600 73.363 C 305.600 73.012,305.240 72.631,304.800 72.516 C 304.357 72.400,304.000 71.970,304.000 71.553 C 304.000 71.067,303.717 70.800,303.200 70.800 C 302.624 70.800,302.400 70.533,302.400 69.849 C 302.400 68.988,301.217 67.428,301.188 68.251 C 301.181 68.443,300.991 68.284,300.766 67.897 C 300.541 67.510,300.467 67.015,300.602 66.797 C 300.737 66.579,300.702 66.386,300.524 66.369 C 299.120 66.237,297.629 65.600,298.721 65.600 C 298.971 65.600,299.071 65.330,298.945 65.000 C 298.818 64.670,298.464 64.400,298.157 64.400 C 297.851 64.400,297.600 64.142,297.600 63.827 C 297.600 63.512,297.240 63.140,296.800 63.000 C 296.360 62.860,296.000 62.471,296.000 62.136 C 296.000 61.800,295.657 61.435,295.237 61.326 C 294.817 61.216,294.384 60.783,294.274 60.363 C 294.159 59.923,293.725 59.600,293.250 59.600 C 292.667 59.600,292.495 59.417,292.665 58.976 C 292.824 58.559,292.621 58.278,292.052 58.129 C 291.583 58.007,291.200 57.641,291.200 57.316 C 291.200 56.991,290.846 56.633,290.413 56.519 C 289.981 56.406,289.518 55.973,289.386 55.557 C 289.254 55.141,288.888 54.800,288.573 54.800 C 288.258 54.800,288.000 54.440,288.000 54.000 C 288.000 53.416,287.733 53.200,287.013 53.200 C 286.243 53.200,286.081 53.045,286.276 52.500 C 286.414 52.115,286.378 51.935,286.196 52.101 C 285.778 52.481,284.400 51.264,284.400 50.514 C 284.400 50.206,284.228 50.059,284.018 50.189 C 283.275 50.648,281.600 49.933,281.600 49.157 C 281.600 48.667,281.318 48.400,280.800 48.400 C 280.267 48.400,280.000 48.133,280.000 47.600 C 280.000 47.067,279.733 46.800,279.200 46.800 C 278.667 46.800,278.400 46.533,278.400 46.000 C 278.400 45.467,278.133 45.200,277.600 45.200 C 276.888 45.200,276.617 44.791,276.748 43.914 C 276.771 43.757,276.534 43.727,276.221 43.847 C 275.904 43.969,275.254 43.609,274.754 43.033 C 274.260 42.465,273.438 42.000,272.928 42.000 C 272.418 42.000,272.045 41.790,272.100 41.533 C 272.155 41.276,271.750 40.828,271.200 40.539 C 270.650 40.249,270.357 40.009,270.549 40.006 C 270.741 40.003,270.674 39.730,270.400 39.400 C 270.126 39.070,269.564 38.800,269.151 38.800 C 268.738 38.800,268.400 38.650,268.400 38.468 C 268.400 38.285,267.917 37.880,267.328 37.568 C 266.297 37.022,265.092 36.111,263.627 34.769 C 263.248 34.422,262.562 34.166,262.102 34.200 C 261.572 34.239,261.106 33.912,260.831 33.308 C 260.592 32.784,260.218 32.465,260.000 32.600 C 259.782 32.735,259.177 32.385,258.656 31.823 C 258.135 31.260,257.324 30.800,256.854 30.800 C 256.362 30.800,256.000 30.546,256.000 30.200 C 256.000 29.870,255.820 29.578,255.600 29.550 C 255.380 29.523,255.020 29.455,254.800 29.400 C 254.580 29.345,254.130 29.277,253.800 29.250 C 253.470 29.223,253.200 28.930,253.200 28.600 C 253.200 28.270,253.065 27.982,252.900 27.960 C 252.735 27.939,252.096 27.876,251.480 27.821 C 250.864 27.766,250.106 27.358,249.794 26.913 C 249.391 26.338,248.930 26.162,248.190 26.304 C 247.377 26.459,247.104 26.318,246.929 25.651 C 246.723 24.862,245.928 24.579,244.469 24.777 C 244.177 24.817,243.841 24.478,243.722 24.025 C 243.551 23.370,243.186 23.200,241.953 23.200 C 240.667 23.200,240.400 23.063,240.400 22.400 C 240.400 21.733,240.133 21.600,238.800 21.600 C 237.467 21.600,237.200 21.467,237.200 20.800 C 237.200 20.089,236.933 20.000,234.800 20.000 C 233.378 20.000,232.400 19.827,232.400 19.576 C 232.400 19.343,232.550 19.245,232.733 19.359 C 232.917 19.472,233.067 19.328,233.067 19.038 C 233.067 18.748,232.872 18.514,232.633 18.519 C 230.113 18.562,229.279 18.346,229.084 17.600 C 228.906 16.920,228.538 16.800,226.637 16.800 C 224.667 16.800,224.400 16.705,224.400 16.000 C 224.400 15.319,224.133 15.200,222.600 15.200 C 221.333 15.200,220.563 14.963,220.000 14.400 C 219.409 13.809,218.667 13.600,217.163 13.600 C 215.462 13.600,215.091 13.468,214.916 12.800 C 214.731 12.093,214.370 12.000,211.802 12.000 C 208.981 12.000,207.074 11.236,208.483 10.670 C 208.767 10.556,207.650 10.446,206.000 10.426 C 202.360 10.381,201.183 10.109,201.464 9.377 C 201.862 8.340,167.618 8.551,166.500 9.592 M165.021 53.350 C 171.788 55.147,178.114 60.846,179.472 66.367 C 179.612 66.935,180.013 67.842,180.363 68.382 C 181.486 70.115,181.259 78.771,180.011 81.800 C 173.965 96.471,155.656 101.599,141.400 92.614 C 134.002 87.950,131.221 73.263,136.141 64.836 C 142.654 53.680,152.105 49.921,165.021 53.350 M219.044 53.314 C 224.825 54.746,228.416 57.498,232.203 63.400 C 235.066 67.863,236.086 77.216,234.174 81.482 C 232.279 85.712,231.804 86.553,230.485 88.022 C 223.846 95.418,209.288 99.611,202.516 96.078 C 201.590 95.595,200.631 95.200,200.386 95.200 C 196.749 95.200,188.816 86.655,188.795 82.717 C 188.793 82.213,188.525 80.810,188.200 79.600 C 186.888 74.712,188.566 65.512,191.191 63.200 C 191.316 63.090,191.710 62.540,192.067 61.978 C 197.420 53.547,207.244 50.392,219.044 53.314 M155.600 63.800 C 155.326 64.130,154.683 64.400,154.172 64.400 C 153.660 64.400,152.756 64.850,152.162 65.400 C 151.569 65.950,150.929 66.400,150.742 66.400 C 150.554 66.400,150.400 66.557,150.400 66.749 C 150.400 66.942,149.680 67.887,148.800 68.849 C 147.920 69.812,147.200 70.890,147.200 71.246 C 147.200 71.601,146.840 72.350,146.400 72.909 C 145.217 74.413,145.217 82.414,146.400 84.200 C 146.837 84.860,147.196 85.743,147.197 86.162 C 147.201 87.091,150.992 90.661,152.331 90.997 C 152.862 91.130,153.532 91.474,153.819 91.761 C 154.973 92.916,163.414 92.944,164.800 91.797 C 165.130 91.524,166.075 91.084,166.900 90.820 C 167.725 90.555,168.400 90.166,168.400 89.956 C 168.400 89.747,168.715 89.456,169.100 89.311 C 169.832 89.034,172.000 87.031,172.000 86.631 C 172.000 86.504,172.360 86.040,172.800 85.600 C 173.240 85.160,173.600 84.409,173.600 83.931 C 173.600 83.454,173.915 82.715,174.300 82.289 C 175.313 81.168,175.313 74.829,174.299 73.709 C 173.915 73.285,173.600 72.570,173.600 72.122 C 173.600 71.674,173.240 70.850,172.800 70.291 C 172.360 69.731,172.000 69.110,172.000 68.911 C 172.000 68.711,171.325 67.975,170.500 67.275 C 169.675 66.575,168.708 65.724,168.350 65.384 C 167.993 65.044,167.012 64.654,166.170 64.518 C 165.328 64.381,164.181 64.030,163.620 63.737 C 162.146 62.968,156.252 63.014,155.600 63.800 M209.776 63.787 C 209.349 64.110,208.604 64.380,208.121 64.387 C 207.637 64.394,206.756 64.850,206.162 65.400 C 205.569 65.950,204.929 66.400,204.742 66.400 C 204.554 66.400,204.400 66.561,204.400 66.758 C 204.400 66.954,203.870 67.683,203.222 68.377 C 199.741 72.103,198.307 79.990,200.400 83.896 C 200.840 84.716,201.200 85.680,201.200 86.037 C 201.200 86.963,205.030 90.671,206.318 90.992 C 206.913 91.141,207.670 91.497,208.000 91.784 C 209.300 92.915,218.429 92.847,219.137 91.701 C 219.286 91.460,219.946 91.133,220.604 90.974 C 221.262 90.815,222.070 90.440,222.400 90.141 C 222.730 89.842,223.675 89.025,224.500 88.325 C 225.325 87.625,226.000 86.906,226.000 86.726 C 226.000 86.547,226.360 86.040,226.800 85.600 C 227.240 85.160,227.600 84.415,227.600 83.944 C 227.600 83.473,227.915 82.858,228.300 82.576 C 229.273 81.865,229.321 75.062,228.363 73.583 C 228.013 73.042,227.594 72.061,227.431 71.403 C 227.269 70.745,226.880 69.935,226.567 69.603 C 226.254 69.271,225.425 68.325,224.725 67.500 C 224.025 66.675,223.235 66.000,222.969 66.000 C 222.703 66.000,222.386 65.740,222.264 65.422 C 222.142 65.104,221.358 64.733,220.521 64.598 C 219.684 64.463,218.522 64.093,217.938 63.776 C 216.480 62.985,210.827 62.993,209.776 63.787 M162.374 64.820 C 168.521 65.591,171.839 68.632,173.403 74.928 C 175.587 83.718,167.573 92.704,158.285 91.879 C 157.012 91.766,155.752 91.500,155.485 91.289 C 155.218 91.077,154.321 90.686,153.492 90.419 C 142.235 86.792,145.342 66.335,157.400 64.684 C 158.060 64.594,158.695 64.493,158.810 64.460 C 158.926 64.427,160.530 64.589,162.374 64.820 M218.045 65.023 C 227.431 66.090,231.320 81.245,223.838 87.600 C 213.785 96.139,200.443 90.785,200.415 78.200 C 200.402 72.303,205.359 65.719,210.479 64.832 C 212.546 64.474,213.399 64.495,218.045 65.023 M161.536 74.138 C 159.204 75.174,156.867 79.018,157.411 80.921 C 158.587 85.033,161.740 87.753,164.521 87.055 C 168.889 85.959,171.267 83.505,171.267 80.095 C 171.267 75.503,165.882 72.206,161.536 74.138 M215.473 74.243 C 210.455 76.963,210.315 83.725,215.225 86.213 C 221.368 89.326,227.980 82.184,224.219 76.500 C 222.469 73.857,218.213 72.758,215.473 74.243 M168.301 75.901 C 168.704 76.304,169.280 77.257,169.581 78.017 C 169.882 78.778,170.257 79.548,170.414 79.729 C 170.796 80.171,169.329 83.164,168.142 84.359 C 166.628 85.886,161.669 85.849,160.119 84.300 C 157.778 81.961,158.932 75.923,161.886 75.054 C 163.407 74.607,167.554 75.154,168.301 75.901 M222.606 76.244 C 223.153 76.834,223.600 77.538,223.600 77.809 C 223.600 78.080,223.870 78.526,224.200 78.800 C 224.530 79.074,224.800 79.704,224.800 80.200 C 224.800 80.696,224.530 81.326,224.200 81.600 C 223.870 81.874,223.600 82.312,223.600 82.574 C 223.600 85.227,216.399 86.580,214.165 84.346 C 211.852 82.034,212.987 75.907,215.886 75.054 C 217.808 74.489,221.601 75.160,222.606 76.244 M217.274 117.700 C 218.963 119.048,218.774 120.301,216.296 124.177 C 214.795 126.526,212.947 129.538,212.411 130.508 C 205.180 143.612,194.304 149.396,181.000 147.213 C 171.801 145.704,168.297 144.263,162.400 139.563 C 158.484 136.442,147.693 125.692,147.581 124.800 C 147.288 122.477,148.676 120.858,150.480 121.420 C 150.986 121.578,154.190 124.457,157.600 127.819 C 161.010 131.181,164.340 134.372,165.000 134.911 C 167.221 136.723,171.744 139.600,172.374 139.602 C 172.718 139.604,173.523 139.878,174.163 140.212 C 175.722 141.024,182.455 142.005,186.297 141.979 C 194.713 141.922,198.965 139.854,204.030 133.356 C 205.075 132.015,205.324 131.650,207.272 128.600 C 207.974 127.500,209.145 125.681,209.874 124.559 C 210.604 123.436,211.200 122.410,211.200 122.279 C 211.200 119.958,215.778 116.507,217.274 117.700 M158.000 183.911 C 158.000 184.302,158.360 184.930,158.800 185.307 C 159.806 186.169,160.008 190.242,159.026 189.865 C 158.710 189.744,158.364 189.860,158.257 190.122 C 158.151 190.385,158.049 189.481,158.032 188.114 C 158.005 186.057,157.862 185.554,157.200 185.200 C 156.760 184.965,156.400 184.418,156.400 183.986 C 156.400 183.467,156.671 183.200,157.200 183.200 C 157.700 183.200,158.000 183.467,158.000 183.911 M161.194 193.364 C 161.190 194.631,161.060 195.198,160.849 194.866 C 160.663 194.572,160.351 194.352,160.155 194.377 C 159.960 194.402,159.707 193.541,159.594 192.463 C 159.392 190.544,159.406 190.511,160.294 190.915 C 161.064 191.266,161.199 191.634,161.194 193.364 M185.500 192.274 C 186.395 193.236,186.863 196.734,186.028 196.217 C 185.823 196.091,185.511 196.215,185.334 196.493 C 185.010 197.003,184.942 197.223,184.850 198.049 C 184.813 198.379,184.658 198.380,184.263 198.052 C 183.968 197.807,183.608 197.725,183.463 197.870 C 183.318 198.015,183.200 197.304,183.200 196.290 C 183.200 195.277,183.017 194.334,182.793 194.196 C 182.570 194.058,182.493 193.732,182.623 193.472 C 182.753 193.213,182.576 193.349,182.230 193.776 C 181.635 194.510,181.600 194.453,181.600 192.757 L 181.600 190.961 183.100 191.134 C 184.006 191.239,184.956 191.690,185.500 192.274 M137.377 196.000 C 137.686 200.096,137.730 200.367,138.058 200.164 C 138.625 199.814,138.814 200.803,138.840 204.235 C 138.862 207.308,138.969 207.811,139.733 208.449 C 140.509 209.097,140.524 209.175,139.876 209.187 C 139.478 209.194,139.266 209.383,139.404 209.607 C 139.542 209.830,139.823 209.909,140.028 209.783 C 140.253 209.644,140.400 212.659,140.400 217.400 C 140.400 222.253,140.255 225.158,140.020 225.012 C 139.345 224.595,138.800 226.286,138.800 228.797 C 138.800 230.145,138.640 231.149,138.445 231.028 C 137.861 230.667,137.242 231.743,137.137 233.301 C 137.068 234.338,136.907 234.655,136.586 234.388 C 136.092 233.978,136.107 233.934,135.749 236.900 C 135.608 238.068,135.320 238.800,135.003 238.800 C 134.346 238.800,134.000 239.700,134.000 241.410 C 134.000 242.236,133.726 242.956,133.289 243.277 C 132.741 243.680,132.549 244.487,132.451 246.799 C 132.319 249.946,132.168 250.551,131.600 250.200 C 131.410 250.082,131.179 250.484,131.087 251.093 C 130.995 251.702,130.893 247.848,130.860 242.529 C 130.809 234.324,130.705 232.762,130.171 232.229 C 129.826 231.883,129.682 231.600,129.851 231.600 C 130.021 231.600,129.944 231.384,129.680 231.120 C 129.401 230.841,129.200 229.506,129.200 227.939 C 129.200 225.238,128.585 223.038,127.942 223.436 C 127.674 223.601,127.352 218.427,127.548 217.114 C 127.571 216.957,127.341 216.925,127.036 217.042 C 126.227 217.352,126.057 216.855,125.962 213.913 C 125.898 211.947,125.745 211.323,125.360 211.471 C 125.060 211.586,124.830 211.361,124.809 210.934 C 124.638 207.382,124.276 205.635,123.689 205.522 C 123.199 205.427,123.030 204.837,122.968 202.999 C 122.840 199.243,122.832 199.200,122.239 199.200 C 121.710 199.200,121.175 195.865,121.533 194.798 C 121.612 194.564,123.670 194.398,126.533 194.395 C 131.558 194.389,133.346 194.159,132.979 193.566 C 132.757 193.206,133.786 192.894,135.800 192.710 C 137.231 192.579,137.099 192.303,137.377 196.000 M162.167 197.443 C 163.189 197.835,163.041 200.800,162.000 200.800 C 161.319 200.800,161.200 200.533,161.200 199.000 C 161.200 197.078,161.203 197.073,162.167 197.443 M164.400 205.296 C 164.400 206.543,164.193 206.650,163.371 205.829 C 162.412 204.869,162.604 203.071,163.600 203.693 C 164.086 203.996,164.400 204.626,164.400 205.296 M165.200 211.047 C 165.200 211.377,165.380 211.536,165.600 211.400 C 165.820 211.264,166.000 211.417,166.000 211.739 C 166.000 212.128,165.731 212.255,165.200 212.116 C 164.675 211.979,164.400 211.570,164.400 210.930 C 164.400 210.380,164.575 210.061,164.800 210.200 C 165.020 210.336,165.200 210.717,165.200 211.047 M167.068 249.334 C 166.629 250.181,166.444 250.291,166.262 249.816 C 166.132 249.477,166.199 249.200,166.413 249.200 C 166.626 249.200,166.800 249.009,166.800 248.776 C 166.800 248.543,166.620 248.464,166.400 248.600 C 165.757 248.998,165.940 248.031,166.700 247.015 L 167.400 246.079 167.519 247.157 C 167.585 247.750,167.382 248.729,167.068 249.334 " stroke="none" fill="#f4b4ec" fill-rule="evenodd"></path><path id="path2" d="M219.600 13.972 C 219.600 14.192,219.960 14.565,220.400 14.800 C 220.915 15.075,221.200 15.085,221.200 14.828 C 221.200 14.608,220.840 14.235,220.400 14.000 C 219.885 13.725,219.600 13.715,219.600 13.972 M224.400 16.167 C 224.400 16.515,224.685 16.800,225.033 16.800 C 225.382 16.800,225.595 16.586,225.508 16.325 C 225.261 15.583,224.400 15.460,224.400 16.167 M232.608 19.018 C 233.043 19.371,233.175 19.545,232.900 19.406 C 232.625 19.267,232.400 19.343,232.400 19.576 C 232.400 19.809,232.773 20.000,233.229 20.000 C 234.421 20.000,234.054 18.718,232.808 18.528 C 231.838 18.380,231.834 18.392,232.608 19.018 M243.675 24.025 C 243.771 24.314,244.086 24.629,244.375 24.725 C 244.675 24.825,244.825 24.675,244.725 24.375 C 244.629 24.086,244.314 23.771,244.025 23.675 C 243.725 23.575,243.575 23.725,243.675 24.025 M246.898 25.700 C 246.989 25.975,247.499 26.259,248.031 26.331 C 248.980 26.460,248.984 26.450,248.200 25.844 C 247.224 25.089,246.677 25.029,246.898 25.700 M107.784 41.227 C 107.639 41.461,107.616 41.749,107.733 41.867 C 108.020 42.153,108.800 41.648,108.800 41.176 C 108.800 40.665,108.109 40.699,107.784 41.227 M281.600 49.369 C 281.600 49.921,283.511 50.623,283.914 50.219 C 284.035 50.099,283.833 50.000,283.467 50.000 C 283.100 50.000,282.800 49.839,282.800 49.643 C 282.800 49.446,282.530 49.182,282.200 49.055 C 281.848 48.920,281.600 49.050,281.600 49.369 M148.600 53.316 C 143.546 55.177,139.708 58.726,136.141 64.836 C 131.221 73.263,134.002 87.950,141.400 92.614 C 155.656 101.599,173.965 96.471,180.011 81.800 C 181.259 78.771,181.486 70.115,180.363 68.382 C 180.013 67.842,179.612 66.935,179.472 66.367 C 178.695 63.205,173.867 57.306,170.471 55.368 C 165.325 52.432,153.911 51.361,148.600 53.316 M202.600 53.358 C 198.557 54.840,194.481 58.177,192.067 61.978 C 191.710 62.540,191.316 63.090,191.191 63.200 C 188.566 65.512,186.888 74.712,188.200 79.600 C 188.525 80.810,188.793 82.213,188.795 82.717 C 188.816 86.655,196.749 95.200,200.386 95.200 C 200.631 95.200,201.590 95.595,202.516 96.078 C 209.288 99.611,223.846 95.418,230.485 88.022 C 231.804 86.553,232.279 85.712,234.174 81.482 C 238.778 71.210,230.719 56.205,219.044 53.314 C 213.940 52.050,206.109 52.071,202.600 53.358 M89.067 59.697 C 88.069 60.745,88.525 61.075,89.552 60.048 C 90.002 59.598,90.242 59.161,90.085 59.078 C 89.928 58.995,89.470 59.273,89.067 59.697 M87.200 62.200 C 86.795 62.688,86.815 62.800,87.308 62.800 C 87.642 62.800,88.018 62.530,88.145 62.200 C 88.271 61.870,88.223 61.600,88.036 61.600 C 87.850 61.600,87.474 61.870,87.200 62.200 M163.620 63.737 C 164.181 64.030,165.328 64.381,166.170 64.518 C 167.012 64.654,167.993 65.044,168.350 65.384 C 168.708 65.724,169.675 66.575,170.500 67.275 C 171.325 67.975,172.000 68.711,172.000 68.911 C 172.000 69.110,172.360 69.731,172.800 70.291 C 173.240 70.850,173.600 71.674,173.600 72.122 C 173.600 72.570,173.915 73.285,174.299 73.709 C 175.313 74.829,175.313 81.168,174.300 82.289 C 173.915 82.715,173.600 83.454,173.600 83.931 C 173.600 84.409,173.240 85.160,172.800 85.600 C 172.360 86.040,172.000 86.504,172.000 86.631 C 172.000 87.031,169.832 89.034,169.100 89.311 C 168.715 89.456,168.400 89.747,168.400 89.956 C 168.400 90.166,167.725 90.555,166.900 90.820 C 166.075 91.084,165.130 91.524,164.800 91.797 C 163.414 92.944,154.973 92.916,153.819 91.761 C 153.532 91.474,152.862 91.130,152.331 90.997 C 150.992 90.661,147.201 87.091,147.197 86.162 C 147.196 85.743,146.837 84.860,146.400 84.200 C 145.217 82.414,145.217 74.413,146.400 72.909 C 146.840 72.350,147.200 71.601,147.200 71.246 C 147.200 70.890,147.920 69.812,148.800 68.849 C 149.680 67.887,150.400 66.942,150.400 66.749 C 150.400 66.557,150.554 66.400,150.742 66.400 C 150.929 66.400,151.569 65.950,152.162 65.400 C 152.756 64.850,153.660 64.400,154.172 64.400 C 154.683 64.400,155.326 64.130,155.600 63.800 C 156.252 63.014,162.146 62.968,163.620 63.737 M217.938 63.776 C 218.522 64.093,219.684 64.463,220.521 64.598 C 221.358 64.733,222.142 65.104,222.264 65.422 C 222.386 65.740,222.703 66.000,222.969 66.000 C 223.235 66.000,224.025 66.675,224.725 67.500 C 225.425 68.325,226.254 69.271,226.567 69.603 C 226.880 69.935,227.269 70.745,227.431 71.403 C 227.594 72.061,228.013 73.042,228.363 73.583 C 229.321 75.062,229.273 81.865,228.300 82.576 C 227.915 82.858,227.600 83.473,227.600 83.944 C 227.600 84.415,227.240 85.160,226.800 85.600 C 226.360 86.040,226.000 86.547,226.000 86.726 C 226.000 86.906,225.325 87.625,224.500 88.325 C 223.675 89.025,222.730 89.842,222.400 90.141 C 222.070 90.440,221.262 90.815,220.604 90.974 C 219.946 91.133,219.286 91.460,219.137 91.701 C 218.429 92.847,209.300 92.915,208.000 91.784 C 207.670 91.497,206.913 91.141,206.318 90.992 C 205.030 90.671,201.200 86.963,201.200 86.037 C 201.200 85.680,200.840 84.716,200.400 83.896 C 198.307 79.990,199.741 72.103,203.222 68.377 C 203.870 67.683,204.400 66.954,204.400 66.758 C 204.400 66.561,204.554 66.400,204.742 66.400 C 204.929 66.400,205.569 65.950,206.162 65.400 C 206.756 64.850,207.637 64.394,208.121 64.387 C 208.604 64.380,209.349 64.110,209.776 63.787 C 210.827 62.993,216.480 62.985,217.938 63.776 M300.406 67.104 C 300.416 67.592,300.967 68.193,301.500 68.300 C 302.186 68.437,302.131 68.290,301.200 67.493 C 300.760 67.116,300.403 66.941,300.406 67.104 M78.800 72.976 C 78.800 73.754,79.475 74.126,79.834 73.545 C 80.015 73.252,79.950 73.184,79.662 73.362 C 79.408 73.519,79.200 73.472,79.200 73.257 C 79.200 73.042,79.425 72.776,79.700 72.665 C 79.999 72.544,79.918 72.450,79.500 72.432 C 79.115 72.414,78.800 72.659,78.800 72.976 M161.886 75.054 C 158.932 75.923,157.778 81.961,160.119 84.300 C 161.669 85.849,166.628 85.886,168.142 84.359 C 169.329 83.164,170.796 80.171,170.414 79.729 C 170.257 79.548,169.882 78.778,169.581 78.017 C 168.562 75.441,165.101 74.108,161.886 75.054 M215.886 75.054 C 212.987 75.907,211.852 82.034,214.165 84.346 C 216.399 86.580,223.600 85.227,223.600 82.574 C 223.600 82.312,223.870 81.874,224.200 81.600 C 224.530 81.326,224.800 80.696,224.800 80.200 C 224.800 79.704,224.530 79.074,224.200 78.800 C 223.870 78.526,223.600 78.080,223.600 77.809 C 223.600 75.883,218.844 74.184,215.886 75.054 M307.292 76.475 C 307.379 76.736,307.664 77.021,307.925 77.108 C 308.218 77.206,308.307 77.023,308.157 76.633 C 307.878 75.906,307.052 75.755,307.292 76.475 M331.051 118.989 C 331.167 119.291,331.509 119.633,331.811 119.749 C 332.157 119.882,332.282 119.757,332.149 119.411 C 332.033 119.109,331.691 118.767,331.389 118.651 C 331.043 118.518,330.918 118.643,331.051 118.989 M337.275 133.225 C 337.371 133.514,337.686 133.829,337.975 133.925 C 338.275 134.025,338.425 133.875,338.325 133.575 C 338.229 133.286,337.914 132.971,337.625 132.875 C 337.325 132.775,337.175 132.925,337.275 133.225 M340.471 141.462 C 340.542 141.826,340.931 142.173,341.335 142.232 C 342.034 142.334,342.036 142.303,341.373 141.570 C 340.519 140.626,340.302 140.601,340.471 141.462 M342.000 145.986 C 342.000 146.198,342.374 146.572,342.830 146.816 C 343.590 147.223,343.623 147.190,343.216 146.430 C 342.759 145.577,342.000 145.299,342.000 145.986 M50.517 157.562 C 50.116 158.203,50.148 158.307,50.721 158.224 C 51.094 158.169,51.458 157.826,51.529 157.462 C 51.705 156.565,51.102 156.624,50.517 157.562 M81.600 182.233 C 81.600 182.940,82.461 182.817,82.708 182.075 C 82.795 181.814,82.582 181.600,82.233 181.600 C 81.885 181.600,81.600 181.885,81.600 182.233 M296.184 182.027 C 296.039 182.261,296.016 182.549,296.133 182.667 C 296.420 182.953,297.200 182.448,297.200 181.976 C 297.200 181.465,296.509 181.499,296.184 182.027 M75.086 183.993 C 74.910 184.668,74.992 184.725,75.639 184.379 C 76.525 183.905,76.649 183.200,75.847 183.200 C 75.542 183.200,75.200 183.557,75.086 183.993 M69.500 185.357 C 69.115 185.649,68.800 185.998,68.800 186.132 C 68.800 186.582,69.936 185.944,70.157 185.369 C 70.420 184.683,70.389 184.682,69.500 185.357 M157.945 185.608 C 159.362 186.488,159.761 186.508,159.246 185.674 C 159.075 185.398,158.410 185.082,157.768 184.972 L 156.600 184.773 157.945 185.608 M221.200 185.433 C 221.200 185.782,221.414 185.995,221.675 185.908 C 222.417 185.661,222.540 184.800,221.833 184.800 C 221.485 184.800,221.200 185.085,221.200 185.433 M337.802 185.598 C 337.403 186.039,337.262 186.400,337.489 186.400 C 337.992 186.400,338.990 185.257,338.721 184.988 C 338.615 184.882,338.202 185.156,337.802 185.598 M55.800 187.200 C 56.198 187.640,56.764 188.000,57.058 188.000 C 57.453 188.000,57.414 187.792,56.907 187.200 C 56.530 186.760,55.964 186.400,55.649 186.400 C 55.202 186.400,55.235 186.576,55.800 187.200 M218.000 187.033 C 218.000 187.740,218.861 187.617,219.108 186.875 C 219.195 186.614,218.982 186.400,218.633 186.400 C 218.285 186.400,218.000 186.685,218.000 187.033 M214.908 188.830 C 214.856 189.511,214.949 189.574,215.423 189.181 C 216.139 188.587,216.170 188.000,215.485 188.000 C 215.202 188.000,214.942 188.374,214.908 188.830 M211.771 190.378 C 211.771 190.966,211.897 191.052,212.286 190.729 C 212.569 190.494,212.800 190.144,212.800 189.951 C 212.800 189.758,212.569 189.600,212.286 189.600 C 212.003 189.600,211.771 189.950,211.771 190.378 M220.430 193.364 C 220.172 193.675,220.114 194.023,220.301 194.139 C 220.487 194.254,220.857 194.000,221.123 193.574 C 221.679 192.684,221.131 192.519,220.430 193.364 M265.310 193.600 C 265.277 194.040,265.492 194.400,265.787 194.400 C 266.128 194.400,266.248 194.107,266.116 193.600 C 266.001 193.160,265.786 192.800,265.638 192.800 C 265.491 192.800,265.343 193.160,265.310 193.600 M181.632 193.900 C 181.652 194.345,181.739 194.412,181.870 194.083 C 182.040 193.661,182.199 193.661,182.739 194.083 C 183.330 194.545,183.342 194.525,182.851 193.900 C 182.549 193.515,182.144 193.200,181.951 193.200 C 181.758 193.200,181.614 193.515,181.632 193.900 M299.271 201.862 C 299.342 202.226,299.731 202.573,300.135 202.632 C 300.834 202.734,300.836 202.703,300.173 201.970 C 299.319 201.026,299.102 201.001,299.271 201.862 M138.900 208.500 C 138.991 208.775,139.406 209.066,139.820 209.146 C 140.473 209.273,140.502 209.205,140.038 208.646 C 139.404 207.882,138.662 207.786,138.900 208.500 M164.400 210.553 C 164.400 210.883,164.580 211.264,164.800 211.400 C 165.020 211.536,165.200 211.377,165.200 211.047 C 165.200 210.717,165.020 210.336,164.800 210.200 C 164.580 210.064,164.400 210.223,164.400 210.553 M276.972 225.600 C 276.972 230.770,277.029 232.885,277.099 230.300 C 277.168 227.715,277.168 223.485,277.099 220.900 C 277.029 218.315,276.972 220.430,276.972 225.600 M210.800 222.400 C 210.525 222.915,210.515 223.200,210.772 223.200 C 210.992 223.200,211.365 222.840,211.600 222.400 C 211.875 221.885,211.885 221.600,211.628 221.600 C 211.408 221.600,211.035 221.960,210.800 222.400 M99.200 222.327 C 99.200 222.961,100.282 224.114,100.518 223.732 C 100.651 223.518,100.408 223.042,99.980 222.675 C 99.551 222.308,99.200 222.152,99.200 222.327 M139.280 224.880 C 139.016 225.144,138.805 225.549,138.812 225.780 C 138.819 226.011,139.010 225.881,139.237 225.492 C 139.464 225.102,139.818 224.888,140.025 225.015 C 140.231 225.143,140.400 225.057,140.400 224.824 C 140.400 224.260,139.873 224.287,139.280 224.880 M260.075 227.848 C 260.447 227.958,260.842 228.353,260.952 228.725 C 261.099 229.214,261.132 229.181,261.072 228.605 C 261.025 228.138,260.662 227.775,260.195 227.728 C 259.619 227.668,259.586 227.701,260.075 227.848 M137.632 230.900 C 137.137 231.694,137.142 231.742,137.673 231.303 C 138.003 231.030,138.392 230.925,138.537 231.070 C 138.682 231.215,138.800 231.033,138.800 230.667 C 138.800 229.735,138.294 229.836,137.632 230.900 M129.870 231.493 C 129.768 231.662,129.935 232.032,130.242 232.316 C 130.700 232.739,130.800 232.726,130.800 232.239 C 130.800 231.560,130.147 231.036,129.870 231.493 M276.924 246.200 C 276.926 247.520,277.001 248.012,277.090 247.293 C 277.179 246.574,277.177 245.494,277.086 244.893 C 276.995 244.292,276.922 244.880,276.924 246.200 M99.584 248.030 C 99.177 248.790,99.210 248.823,99.970 248.416 C 100.823 247.959,101.101 247.200,100.414 247.200 C 100.202 247.200,99.828 247.574,99.584 248.030 M166.540 248.956 C 166.287 249.245,166.199 249.674,166.344 249.910 C 166.501 250.163,166.797 249.942,167.067 249.370 C 167.561 248.323,167.284 248.106,166.540 248.956 M212.013 251.676 C 212.006 252.048,212.192 252.471,212.427 252.616 C 213.132 253.052,213.230 252.593,212.609 251.771 C 212.097 251.094,212.024 251.083,212.013 251.676 M130.901 253.800 C 130.905 254.680,130.987 254.993,131.083 254.495 C 131.179 253.998,131.175 253.278,131.075 252.895 C 130.975 252.513,130.896 252.920,130.901 253.800 M269.200 257.124 C 269.200 257.339,269.485 257.624,269.833 257.757 C 270.223 257.907,270.406 257.818,270.308 257.525 C 270.109 256.927,269.200 256.598,269.200 257.124 M174.300 259.482 C 174.795 259.578,175.605 259.578,176.100 259.482 C 176.595 259.387,176.190 259.309,175.200 259.309 C 174.210 259.309,173.805 259.387,174.300 259.482 M177.905 259.483 C 178.402 259.579,179.122 259.575,179.505 259.475 C 179.887 259.375,179.480 259.296,178.600 259.301 C 177.720 259.305,177.407 259.387,177.905 259.483 M189.900 259.493 C 190.835 259.577,192.365 259.577,193.300 259.493 C 194.235 259.409,193.470 259.340,191.600 259.340 C 189.730 259.340,188.965 259.409,189.900 259.493 M214.092 259.675 C 214.339 260.417,215.200 260.540,215.200 259.833 C 215.200 259.485,214.915 259.200,214.567 259.200 C 214.218 259.200,214.005 259.414,214.092 259.675 M270.542 263.000 C 270.541 264.980,270.608 265.840,270.692 264.912 C 270.776 263.984,270.777 262.364,270.695 261.312 C 270.612 260.260,270.543 261.020,270.542 263.000 M226.100 261.099 C 230.373 261.176,232.800 261.369,232.800 261.633 C 232.800 261.861,232.980 261.936,233.200 261.800 C 233.420 261.664,233.600 261.773,233.600 262.043 C 233.600 262.313,233.735 262.399,233.899 262.234 C 234.917 261.217,232.489 260.802,226.024 260.890 L 219.400 260.979 226.100 261.099 M248.755 263.111 C 249.022 263.612,249.423 263.909,249.647 263.771 C 249.870 263.633,249.996 263.487,249.927 263.447 C 249.857 263.407,249.456 263.110,249.035 262.787 C 248.313 262.234,248.297 262.252,248.755 263.111 M126.000 264.633 C 126.000 264.982,126.214 265.195,126.475 265.108 C 127.217 264.861,127.340 264.000,126.633 264.000 C 126.285 264.000,126.000 264.285,126.000 264.633 M93.200 272.767 C 93.200 272.969,93.096 273.464,92.970 273.867 C 92.777 274.481,92.820 274.470,93.236 273.800 C 93.508 273.360,93.927 272.868,94.166 272.706 C 94.430 272.527,94.326 272.410,93.900 272.406 C 93.515 272.403,93.200 272.565,93.200 272.767 M103.984 277.630 C 103.577 278.390,103.610 278.423,104.370 278.016 C 104.826 277.772,105.200 277.398,105.200 277.186 C 105.200 276.499,104.441 276.777,103.984 277.630 " stroke="none" fill="#fbfafb" fill-rule="evenodd"></path></g></svg>